<?xml version="1.0" standalone="no"?>
<!DOCTYPE svg PUBLIC "-//W3C//DTD SVG 1.1//EN" "http://www.w3.org/Graphics/SVG/1.1/DTD/svg11.dtd" >
<svg xmlns="http://www.w3.org/2000/svg">
<metadata></metadata>
<defs>
<font id="metanormal" horiz-adv-x="1024" >
<font-face units-per-em="2048" ascent="1638" descent="-410" />
<missing-glyph horiz-adv-x="681" />
<glyph horiz-adv-x="0" />
<glyph unicode="&#xd;" horiz-adv-x="681" />
<glyph unicode=" "  horiz-adv-x="681" />
<glyph unicode="&#x09;" horiz-adv-x="681" />
<glyph unicode="&#xa0;" horiz-adv-x="681" />
<glyph unicode="!" horiz-adv-x="544" d="M145 113q0 53 36 89t89 36q51 0 88 -36t37 -87q0 -53 -35.5 -91t-89.5 -38q-53 0 -89 36.5t-36 90.5zM168 1405l201 27l-39 -1026h-123z" />
<glyph unicode="&#x22;" horiz-adv-x="1062" d="M307 958v492h148v-492h-148zM608 958v492h148v-492h-148z" />
<glyph unicode="#" horiz-adv-x="1138" d="M61 436v135h222l41 312h-201v135h221l62 432h137l-62 -432h258l62 432h137l-61 -432h200v-135h-219l-43 -312h201v-135h-221l-62 -436h-137l61 436h-258l-61 -436h-137l61 436h-201zM420 571h258l43 312h-258z" />
<glyph unicode="$" horiz-adv-x="1134" d="M70 100l73 131q170 -121 359 -120v551l-51 16q-188 59 -250 125q-88 92 -88 229q0 170 110 279q106 102 279 121v172h121v-170q197 -16 368 -134l-73 -120q-164 106 -295 116v-489l67 -19q152 -41 242 -137q98 -104 98 -254q0 -207 -194 -338q-90 -61 -213 -79v-199h-121 v192q-225 0 -432 127zM295 1067q0 -149 207 -223v448q-207 -33 -207 -225zM623 119q63 10 120 53q101 76 101 201q0 174 -221 250v-504z" />
<glyph unicode="%" horiz-adv-x="1701" d="M70 1067q0 160 85 254t242 94q162 0 250 -100q82 -96 82 -260q0 -156 -88 -248t-242 -92q-158 0 -243.5 96t-85.5 256zM209 1083q0 -125 35 -182q47 -74 162 -74q186 1 186 220q0 123 -37 182q-45 74 -160 74q-186 0 -186 -220zM453 0l682 1395h135l-682 -1395h-135z M983 332q0 160 85 254t243 94q162 0 250 -100q81 -97 81 -261q0 -156 -88 -247.5t-241 -91.5q-158 0 -244 96t-86 256zM1122 348q0 -125 35 -182q47 -74 162 -74q186 0 186 219q0 123 -37 183q-45 74 -159 73q-186 0 -187 -219z" />
<glyph unicode="&#x26;" horiz-adv-x="1427" d="M160 348q0 117 67 203q49 61 219 154q-199 172 -198 315q0 143 112 235q106 88 252 88q156 0 260 -77q117 -86 117 -238q0 -168 -176 -270l-117 -68l324 -321q31 45 39 161q4 49 2 148l141 4q0 -141 -12 -223q-16 -109 -64 -201l258 -256h-213l-135 131 q-133 -164 -401 -164q-199 0 -328 88q-147 100 -147 291zM336 336q0 -123 94 -186q82 -55 209 -56q88 0 170 33q92 35 139 98l-405 396q-207 -98 -207 -285zM420 1040q0 -84 94 -178q47 -47 90 -84q209 102 209 252q0 88 -55.5 142.5t-143.5 54.5t-151 -62q-43 -41 -43 -125 z" />
<glyph unicode="'" horiz-adv-x="569" d="M211 958v492h147v-492h-147z" />
<glyph unicode="(" horiz-adv-x="655" d="M199 657q0 463 194 705q123 154 283 215l39 -78q-219 -131 -297 -362q-55 -164 -56 -475q0 -451 123 -668q82 -146 236 -230l-45 -81q-272 104 -395 421q-82 213 -82 553z" />
<glyph unicode=")" horiz-adv-x="659" d="M-61 1499l45 82q272 -104 395 -422q82 -213 82 -553q0 -463 -195 -704q-123 -154 -282 -215l-39 77q219 131 297 363q55 164 55 475q0 451 -123 668q-82 145 -235 229z" />
<glyph unicode="*" horiz-adv-x="909" d="M63 1124l39 119l291 -98v305h123v-305l291 98l39 -119l-289 -98l182 -244l-100 -77l-184 251l-179 -251l-102 77l178 244z" />
<glyph unicode="+" d="M74 438v148h364v364h148v-364h364v-148h-364v-364h-148v364h-364z" />
<glyph unicode="," horiz-adv-x="546" d="M117 -203q121 59 137 183q-10 -2 -23 -3q-49 0 -80.5 40t-31.5 92q0 61 41 104t102 43q78 0 120 -58.5t42 -138.5q0 -203 -240 -346l-10 -6z" />
<glyph unicode="-" horiz-adv-x="618" d="M117 469v156h391v-156h-391z" />
<glyph unicode="." horiz-adv-x="544" d="M135 115q0 57 39 96t96 39q59 0 99.5 -38t40.5 -97q0 -57 -39 -99.5t-97 -42.5q-59 0 -99 41t-40 101z" />
<glyph unicode="/" horiz-adv-x="546" d="M-59 -303l530 1853h135l-530 -1853h-135z" />
<glyph unicode="0" horiz-adv-x="1095" d="M94 508q0 231 111 375q123 160 346 159q231 0 352 -159q109 -143 109 -383q0 -231 -111 -375q-123 -160 -346 -160q-231 0 -352 160q-109 143 -109 383zM262 535q0 -199 49 -297q70 -139 246 -140q287 0 287 375q0 199 -49 297q-70 139 -246 139q-287 0 -287 -374z" />
<glyph unicode="1" horiz-adv-x="827" d="M98 801l351 237h124v-909h189v-129h-539v129h189v715q-76 -49 -279 -131z" />
<glyph unicode="2" horiz-adv-x="1095" d="M127 870q219 190 430 191q152 0 252 -70q115 -80 115 -225t-146 -295q-74 -76 -268 -215l-184 -133q98 8 211 8h434l-33 -131h-782v129q76 53 143 111l162 135q100 84 145 125q59 55 80 88q47 80 47 155q0 178 -217 179q-137 0 -309 -123l-14 -11z" />
<glyph unicode="3" horiz-adv-x="1095" d="M102 885q186 170 426 170q162 0 271 -84q119 -94 119 -250q0 -113 -69 -191.5t-179 -111.5l16 -4q80 -20 141 -68q127 -99 127 -242q0 -139 -96 -243q-111 -121 -217 -168q-147 -66 -383 -66q-61 0 -100 6l-37 109q39 -6 104 -6q145 0 236 24q115 31 207 115 q68 61 90 143q16 43 16 101q0 178 -170 229q-68 20 -248 21h-20v114h18q154 0 207 6q31 4 68 19q115 47 114 192q0 104 -68.5 163t-174.5 59q-109 0 -199 -43q-55 -37 -113 -70l-14 -8z" />
<glyph unicode="4" horiz-adv-x="1095" d="M86 10v127l471 922h178l-391 -766q-33 -63 -90 -162q43 6 80 6h362v60q0 70 9 184l20 287l127 39v-412q0 -98 -2 -160q39 4 68 4h100v-129h-113q-20 0 -55 2q2 -35 2 -59v-303l-158 -47v327q0 23 2 82q-57 -2 -82 -2h-528z" />
<glyph unicode="5" horiz-adv-x="1095" d="M139 -240q63 -29 154 -28q174 0 301 98q141 106 141 274q0 133 -88 203q-80 63 -217 64q-160 0 -260 -45l66 690h606l-25 -135h-436l-35 -398q88 10 139 11q186 0 306 -103t120 -287q0 -227 -188 -364q-168 -123 -404 -123q-76 0 -151 21z" />
<glyph unicode="6" horiz-adv-x="1095" d="M100 522q0 319 222 570q207 231 528 325l39 -102q-143 -43 -273 -137q-139 -98 -215 -217q-59 -94 -96 -252q113 106 299 106q176 0 292 -113.5t116 -289.5q0 -193 -129 -320t-322 -127q-225 0 -350 172q-111 152 -111 385zM289 479q0 -160 55 -262q70 -127 217 -127 q131 0 203 96q63 87 63 222q0 127 -63 202q-70 82 -193 82q-139 0 -276 -108q-6 -47 -6 -105z" />
<glyph unicode="7" horiz-adv-x="1095" d="M111 879l39 135h851l-38 -162q-74 -104 -144 -209q-113 -170 -223 -383q-172 -328 -225 -588l-197 -51q45 258 287 703q203 375 379 559q-121 -4 -189 -4h-540z" />
<glyph unicode="8" horiz-adv-x="1095" d="M90 344q0 250 289 361q-242 113 -242 317q0 172 135 262q117 78 297 78q160 0 269 -74q125 -84 125 -237q0 -178 -195 -289q-16 -10 -82 -41l109 -49q213 -96 213 -303q0 -182 -144 -297q-133 -106 -319 -107q-182 0 -312 96q-143 106 -143 283zM254 354q0 -127 90 -200 q82 -68 213 -68q119 0 197 61q86 68 86 183q0 100 -49 151q-55 57 -312 174q-113 -61 -160 -114q-66 -74 -65 -187zM293 1036q0 -92 69 -149q92 -76 209 -117q236 125 236 268q0 102 -80 158q-70 49 -178 49q-109 0 -178 -49q-78 -55 -78 -160z" />
<glyph unicode="9" horiz-adv-x="1095" d="M61 -326q158 23 332 131q272 168 371 445q-117 -86 -262 -86q-182 0 -296 122t-114 306q0 197 131 328t328 131q205 0 326 -150q112 -139 112 -350q0 -360 -258 -653q-131 -150 -342 -246q-129 -59 -246 -76zM270 596q0 -133 58 -215q68 -94 194 -94q141 0 275 112 q16 78 16 150q0 147 -61 250q-74 125 -211 125q-131 0 -205 -103q-66 -90 -66 -225z" />
<glyph unicode=":" horiz-adv-x="618" d="M174 113q0 59 40 99t99 40q57 0 96.5 -40t39.5 -97q0 -59 -40 -99.5t-100 -40.5q-57 0 -96 40t-39 98zM174 758q0 59 40 100t99 41q57 0 96.5 -40t39.5 -97t-40 -98t-98 -41q-57 0 -97 38.5t-40 96.5z" />
<glyph unicode=";" horiz-adv-x="620" d="M160 -203q121 59 139 183q-12 -2 -23 -3q-49 0 -80.5 40t-31.5 92q0 61 41 104t102 43q78 0 120 -58.5t42 -138.5q0 -113 -78 -215q-45 -59 -164 -131l-10 -6zM162 766q0 55 41 93t96 38q57 0 98 -39t41 -96q0 -59 -39 -100t-98 -41t-99 43t-40 102z" />
<glyph unicode="&#x3c;" horiz-adv-x="643" d="M27 614l391 527l135 -88l-328 -439l328 -438l-135 -88z" />
<glyph unicode="=" horiz-adv-x="1363" d="M147 393v135h1070v-135h-1070zM147 713v135h1070v-135h-1070z" />
<glyph unicode="&#x3e;" horiz-adv-x="643" d="M78 176l328 438l-328 439l135 88l393 -527l-393 -526z" />
<glyph unicode="?" horiz-adv-x="731" d="M18 1303q158 121 377 120q141 0 228.5 -81t87.5 -220q0 -129 -95 -231q-10 -12 -118 -98q-72 -57 -92 -111q-12 -35 -13 -121q0 -49 13 -106h-138q-18 74 -18 139q0 170 115 272l122 99q61 61 62 149q0 78 -53.5 124t-130.5 46q-96 0 -197 -49q-31 -16 -82 -45zM213 113 q0 57 40 97t97 40t98 -40t41 -97q0 -59 -38.5 -100.5t-98.5 -41.5q-57 0 -98 42t-41 100z" />
<glyph unicode="@" horiz-adv-x="1638" d="M90 725q0 319 223.5 540.5t542.5 221.5q283 0 481 -170q211 -181 211 -457q0 -246 -168 -428q-152 -164 -311 -164q-125 0 -131 135h-4q-117 -135 -256 -135q-131 0 -210 92.5t-79 225.5q0 221 125 391q139 188 352 188q166 0 228 -168h4l37 129h133l-172 -579 q-18 -61 -19 -103q0 -41 49 -41q123 0 211 168q76 145 76 279q0 227 -164 376.5t-393 149.5q-266 0 -448.5 -191.5t-182.5 -459.5q0 -266 183.5 -458.5t447.5 -192.5q150 0 290 65.5t226 182.5h129q-100 -168 -273 -263.5t-372 -95.5q-324 0 -545 220t-221 542zM537 600 q0 -80 49 -138.5t129 -58.5q129 0 229 158q88 140 88 277q0 72 -47 132t-119 60q-139 0 -239 -149q-90 -133 -90 -281z" />
<glyph unicode="A" horiz-adv-x="1169" d="M8 0l469 1405h219l465 -1405h-190l-133 432h-525l-135 -432h-170zM360 569h435l-215 688l-70 -206q-27 -88 -150 -482z" />
<glyph unicode="B" horiz-adv-x="1208" d="M188 0v1405h203q328 0 418 -31q106 -37 173 -124t67 -197q0 -227 -252 -308q129 -33 186 -77q125 -99 125 -283q0 -115 -65.5 -214t-172.5 -138q-92 -33 -319 -33h-363zM350 137h281q115 0 170 23q72 31 108 123q23 57 23 116q0 88 -45 159t-125 89q-66 14 -164 15h-248 v-525zM350 801h244q102 0 147 18q66 25 99 103q22 51 22 108q0 193 -182 225q-47 8 -131 9h-199v-463z" />
<glyph unicode="C" horiz-adv-x="1097" d="M102 698q0 287 148 494q166 231 442 231q205 0 355 -114l-91 -109q-121 88 -266 88q-242 0 -346 -241q-59 -137 -59 -373q0 -186 45 -297q104 -258 377 -258q147 0 274 90l90 -117q-176 -115 -391 -115q-281 0 -438 228q-139 201 -140 493z" />
<glyph unicode="D" horiz-adv-x="1280" d="M184 0v1393h281q178 0 254 -17q96 -20 196 -92q238 -170 238 -590q0 -342 -160 -520q-94 -106 -198 -143q-86 -31 -244 -31h-367zM352 139h150q111 0 172 11q135 23 203 135q94 156 94 389q0 471 -271 561q-61 20 -180 20h-168v-1116z" />
<glyph unicode="E" horiz-adv-x="1060" d="M188 0v1395h768l-22 -140h-576v-454h482v-146h-482v-510h619v-145h-789z" />
<glyph unicode="F" horiz-adv-x="952" d="M184 0v1399h740l-27 -139h-543v-455h451v-137h-451v-668h-170z" />
<glyph unicode="G" horiz-adv-x="1243" d="M111 694q0 397 217 590q152 133 366 133q223 0 385 -139l-75 -104q-159 108 -303 108h-3q-266 0 -350 -238q-55 -156 -55 -356q0 -283 98 -426q49 -72 152 -112q92 -37 188 -37q135 0 223 55v428h-282l-33 139h473v-655q-164 -106 -395 -107q-305 0 -463 213 q-143 193 -143 508z" />
<glyph unicode="H" horiz-adv-x="1284" d="M178 0v1405h164v-588h592v588h168v-1405h-168v680h-592v-680h-164z" />
<glyph unicode="I" horiz-adv-x="548" d="M193 0v1405h163v-1405h-163z" />
<glyph unicode="J" horiz-adv-x="546" d="M-4 -158q121 49 168 138q35 63 35 256v1169h168v-1165q0 -229 -52 -322q-68 -123 -237 -180z" />
<glyph unicode="K" horiz-adv-x="1169" d="M170 0v1405h170v-1405h-170zM348 743l541 662h215l-565 -660l561 -745h-215z" />
<glyph unicode="L" horiz-adv-x="952" d="M184 0v1405h168v-1264h555l-22 -141h-701z" />
<glyph unicode="M" horiz-adv-x="1574" d="M135 0l123 1405h246l256 -918q35 -125 55 -245q31 156 51 229l264 934h248l121 -1405h-168l-82 1030q-6 74 -10 240q-20 -98 -55 -221l-301 -1049h-144l-278 997q-49 176 -70 275q-6 -141 -16 -273l-78 -999h-162z" />
<glyph unicode="N" horiz-adv-x="1280" d="M174 0v1401h195l467 -895q53 -102 131 -293q-8 111 -19 426l-6 762h166v-1401h-176l-451 858q-115 219 -159 336q16 -195 18 -381l8 -813h-174z" />
<glyph unicode="O" horiz-adv-x="1353" d="M117 709q0 301 125 493q147 227 434 228q299 0 446 -238q123 -195 123 -512q0 -385 -205 -571q-150 -135 -356 -136q-289 0 -440 232q-127 197 -127 504zM303 743q0 -336 90 -489q41 -68 131 -111q84 -41 168 -41q365 0 365 553q0 305 -68 447q-92 192 -311 192h-2 q-213 0 -301 -164q-72 -135 -72 -387z" />
<glyph unicode="P" horiz-adv-x="1171" d="M190 0v1405h390q207 0 307 -66q180 -116 180 -335q0 -215 -126 -330t-341 -115h-246v-559h-164zM354 696h236q135 0 213 70t78 205q0 164 -95 233q-82 59 -254 60h-178v-568z" />
<glyph unicode="Q" horiz-adv-x="1353" d="M113 709q0 303 125 493q145 227 432 228q299 0 446 -236q125 -197 125 -514q0 -383 -207 -571q-45 -41 -90 -68q43 -14 189 -96q102 -57 188 -58q59 1 84 11l-55 -134q-37 -18 -121 -18q-92 0 -268 107q-88 53 -130 71q-66 29 -167 49q-279 0 -426 238q-125 201 -125 498 zM297 743q0 -332 92 -489q41 -72 129 -113q82 -39 170 -39q365 0 365 553q0 301 -70 447q-92 192 -311 192h-2q-92 0 -172 -41q-86 -45 -127 -123q-74 -137 -74 -387z" />
<glyph unicode="R" horiz-adv-x="1169" d="M186 0v1403h328q244 0 354 -90q139 -113 140 -295q0 -172 -100.5 -278.5t-272.5 -106.5h-21q66 -53 142 -158q27 -39 114 -164q55 -78 209 -311h-211q-104 231 -358 543q-72 86 -156 90v-633h-168zM356 737h150q162 0 237 60q88 67 88 223q0 68 -37.5 128t-99.5 85 q-74 29 -176 29h-162v-525z" />
<glyph unicode="S" horiz-adv-x="1134" d="M70 100l73 131q167 -120 374 -120h3q135 0 223 61q100 70 101 201q0 186 -252 262l-141 43q-184 55 -250 125q-88 92 -88 229q0 190 135 301q125 102 319 103q225 0 424 -136l-73 -120q-180 118 -340 118h-3q-121 0 -196 -53q-84 -61 -84 -178q0 -156 233 -229l162 -52 q340 -108 340 -389q0 -209 -194 -338q-129 -86 -316 -86q-246 0 -450 127z" />
<glyph unicode="T" horiz-adv-x="1026" d="M47 1264v141h930l-10 -141h-381v-1264h-162v1264h-377z" />
<glyph unicode="U" horiz-adv-x="1247" d="M162 424v981h166v-899q0 -150 14 -215q37 -172 285 -172q174 0 239 80q61 72 62 247v959h166v-977q0 -131 -13 -186q-33 -143 -178 -211q-117 -55 -285 -56q-315 0 -415 203q-41 82 -41 246z" />
<glyph unicode="V" horiz-adv-x="1173" d="M31 1405h182l297 -901q63 -190 82 -314q23 100 86 293l301 922h172l-481 -1405h-166z" />
<glyph unicode="W" horiz-adv-x="1675" d="M49 1405h180l179 -821q23 -102 75 -428q29 178 80 407l187 842h190l182 -815q72 -322 84 -434q23 160 82 434l174 815h168l-321 -1405h-219l-175 780q-51 227 -73 400q-27 -182 -72 -387l-172 -793h-217z" />
<glyph unicode="X" horiz-adv-x="1099" d="M14 0l416 754l-373 651h199l281 -520l268 520h196l-352 -639l443 -766h-203l-348 645l-330 -645h-197z" />
<glyph unicode="Y" horiz-adv-x="1099" d="M12 1405h207l266 -537q49 -98 72 -157q18 45 76 157l270 537h193l-457 -858v-547h-174v557z" />
<glyph unicode="Z" horiz-adv-x="991" d="M51 0v129l600 987q57 96 90 135q-39 -2 -145 -2h-524l47 142h801v-144l-584 -971q-25 -41 -86 -135q49 2 121 2h557l-43 -143h-834z" />
<glyph unicode="[" horiz-adv-x="530" d="M57 -319v1818h338v-123h-190v-1573h190v-122h-338z" />
<glyph unicode="\" horiz-adv-x="757" d="M6 1487l129 49l617 -1573l-129 -51z" />
<glyph unicode="]" horiz-adv-x="530" d="M135 -197h191v1573h-191v123h338v-1818h-338v122z" />
<glyph unicode="^" horiz-adv-x="1363" d="M164 563l457 887h122l457 -887h-151l-367 715l-367 -715h-151z" />
<glyph unicode="_" d="M0 -154h1024v-102h-1024v102z" />
<glyph unicode="`" horiz-adv-x="692" d="M80 1362l88 158l424 -267l-53 -96z" />
<glyph unicode="a" d="M88 264q0 199 180 293q141 74 361 74q37 0 71 -2v71q0 123 -32 160q-49 55 -138 55q-174 0 -325 -120l-80 114q207 137 428 138q217 0 283 -160q22 -53 22 -164v-10v-51l-8 -336q-2 -14 -2 -47q0 -86 10 -119q17 -55 74 -84l-82 -115q-111 35 -139 150 q-137 -137 -295 -138q-147 0 -234 72q-94 76 -94 219zM266 279q0 -186 176 -187q170 0 248 160l6 266q-70 4 -80 4q-350 0 -350 -243z" />
<glyph unicode="b" horiz-adv-x="1134" d="M131 1464l174 35q27 -115 27 -254v-227q0 -88 -4 -113q139 137 293 137q203 0 307 -165q88 -138 88 -353q0 -217 -92 -368q-109 -180 -314 -181q-76 0 -155.5 38t-124.5 98q-8 -66 -29 -111h-160q31 68 31 254v969q0 160 -41 241zM330 240q94 -123 252 -123 q256 0 256 418q0 362 -252 362q-156 0 -256 -133v-524z" />
<glyph unicode="c" horiz-adv-x="878" d="M115 494q0 283 153 434q121 119 277 119q145 0 278 -111l-88 -111q-100 82 -194 82q-250 0 -250 -448q0 -354 252 -355q127 0 219 111l88 -102q-133 -135 -311 -136q-217 0 -328 156q-96 135 -96 361z" />
<glyph unicode="d" horiz-adv-x="1134" d="M123 502q0 328 211 473q93 65 193 65h3q178 0 277 -131q-2 90 -2 158v428l160 -27v-1138q0 -178 10 -248q8 -49 20 -82h-164q-14 41 -22 104q-39 -43 -70 -63q-82 -55 -200 -55q-215 0 -322 155q-94 135 -94 361zM299 506q0 -385 246 -385q184 0 258 139v541 q-76 106 -248 106q-256 0 -256 -401z" />
<glyph unicode="e" d="M100 520q0 215 105 363q119 166 323 166q170 0 277 -113q76 -80 100 -201q16 -78 17 -229v-23h-637v-24q0 -152 47 -223q82 -125 254 -125q145 0 250 96l61 -103q-139 -127 -344 -127q-227 0 -346 162q-106 145 -107 381zM285 604h467q-2 145 -43 219q-55 98 -189 99 q-223 0 -235 -318z" />
<glyph unicode="f" horiz-adv-x="587" d="M106 891v121h99v168q0 164 112 250q70 53 181 53q135 -1 225 -60l-59 -112q-82 47 -152 47q-139 0 -139 -180v-166h282l-49 -121h-233v-891h-168v891h-99z" />
<glyph unicode="g" horiz-adv-x="1060" d="M106 -121q0 49 21 109l168 14l-8 -16q-20 -41 -21 -76q0 -166 266 -166q248 0 248 178q0 102 -82 137q-55 25 -174 25q-27 0 -79 -2t-78 -2q-193 0 -193 147q0 113 172 170l12 4q-100 33 -164.5 113t-64.5 182q0 160 111 254q104 90 266 90q78 0 147 -22l70 -23 q39 -12 94 -12q74 0 141 45l99 -98q-86 -61 -172 -62q-37 0 -70 13q61 -76 62 -174q0 -141 -90.5 -233.5t-229.5 -92.5h-22l-23 -8q-162 -59 -162 -111q0 -49 82 -49h164q164 0 246 -57q113 -78 112 -215q0 -322 -405 -322q-442 0 -443 260zM309 698q0 -198 195 -198h2 q184 0 184 205q0 200 -186 200h-2q-193 0 -193 -207z" />
<glyph unicode="h" horiz-adv-x="1095" d="M135 1460l160 31q27 -98 27 -236v-237q0 -59 -7 -139q43 41 103 79q125 82 237 82q104 0 179 -51q80 -57 94 -155q6 -41 6 -103v-731h-158v705q0 96 -31 139q-37 53 -127 53q-158 0 -296 -172v-725h-160v1257q0 111 -27 203z" />
<glyph unicode="i" horiz-adv-x="509" d="M129 1333q0 53 36 90t89 37t89 -36t36 -89t-36 -89t-89 -36q-51 0 -88 36t-37 87zM168 0v1016l170 26v-1042h-170z" />
<glyph unicode="j" horiz-adv-x="512" d="M23 -299q57 27 86 55q69 69 69 273v6v977l162 32v-1017q0 -180 -43 -263q-59 -113 -195 -170zM131 1350q0 53 36 91t89 38q51 0 88 -37t37 -88q0 -53 -36 -90t-89 -37q-51 0 -88 35.5t-37 87.5z" />
<glyph unicode="k" d="M133 1454l160 39q16 -49 20 -80q12 -90 13 -215v-1198h-160v1163q0 119 -19 226q-4 23 -14 65zM332 578l389 442h201l-402 -442l494 -578h-213z" />
<glyph unicode="l" horiz-adv-x="509" d="M145 1456l166 33q25 -72 25 -315v-969q0 -53 6 -70q12 -33 51 -33q6 0 21 4l32 -104q-47 -22 -98 -22h-4q-170 0 -170 188v1006q0 199 -29 282z" />
<glyph unicode="m" horiz-adv-x="1607" d="M135 1008l156 36q37 -74 37 -143v-8q147 154 297 154q174 0 237 -170q160 170 328 170q117 0 186.5 -79t69.5 -198v-770h-164v754q0 149 -129 149h-2q-76 0 -145 -55q-29 -23 -107 -86l-18 -17v-745h-162v725q0 84 -25 123q-29 49 -108 49q-111 0 -260 -135v-762h-154 v760q0 154 -37 248z" />
<glyph unicode="n" horiz-adv-x="1097" d="M137 1001l156 43q37 -80 37 -159q157 157 319 157h2q80 0 149.5 -39.5t100.5 -109.5q25 -55 25 -119v-774h-162v690q0 104 -25 150q-33 63 -125 63q-68 0 -153 -47q-78 -41 -129 -96v-760h-156v760q0 156 -39 241z" />
<glyph unicode="o" horiz-adv-x="1124" d="M123 508q0 227 100 371q116 163 331 163h3q229 0 346 -172q98 -145 98 -385q0 -283 -159 -422q-113 -98 -279 -98q-221 0 -338 166q-102 145 -102 377zM297 535q0 -195 41 -291q63 -145 229 -146q252 0 252 375q0 193 -39 289q-61 149 -223 149h-2q-154 0 -213 -120 q-45 -86 -45 -256z" />
<glyph unicode="p" horiz-adv-x="1134" d="M147 1018l166 29q10 -51 11 -129v-27q126 149 299 149h2q203 0 303 -172q82 -139 82 -356q0 -219 -82 -352q-115 -186 -316 -187q-166 0 -280 119v-487l-160 -31v1198q0 172 -25 246zM332 240q117 -133 250 -134q258 1 258 386q0 174 -35 264q-55 141 -201 141 q-154 0 -272 -143v-514z" />
<glyph unicode="q" horiz-adv-x="1134" d="M125 479q0 276 96 408q119 164 305 164q160 0 289 -144q6 78 23 115h157q-32 -53 -32 -268v-13v-1124l-154 -33v531q-115 -133 -287 -133q-135 0 -233 81q-164 137 -164 416zM295 516q0 -397 266 -397h2q163 0 246 157v486q-41 66 -112.5 105.5t-147.5 39.5 q-254 0 -254 -391z" />
<glyph unicode="r" horiz-adv-x="657" d="M141 1004l160 43q35 -76 35 -152v-14q121 170 287 170q24 -1 55 -11l-66 -174q-27 8 -45 8q-61 0 -121.5 -35.5t-89.5 -88.5q-18 -35 -18 -111v-639h-160v778q0 141 -37 226z" />
<glyph unicode="s" horiz-adv-x="913" d="M59 74l62 119q158 -96 323 -97q90 0 148.5 45t58.5 131q0 129 -168 168l-127 29q-258 57 -258 279q0 145 111 233q102 80 252 80q168 0 311 -82l-59 -119q-154 74 -256 74q-82 0 -135 -41q-57 -47 -58 -127q0 -117 148 -148l135 -28q272 -58 272 -285q0 -158 -117 -250 q-104 -84 -268 -84q-207 0 -375 103z" />
<glyph unicode="t" horiz-adv-x="659" d="M55 897v125h133v12q0 27 15 213l2 27l166 37q-20 -164 -21 -289h258l-49 -125h-215v-655q0 -80 25 -113q29 -39 106 -39q61 0 103 21l22 -103q-78 -41 -180 -41q-231 0 -232 232v698h-133z" />
<glyph unicode="u" horiz-adv-x="1097" d="M174 262v750l158 30v-733q0 -207 186 -207q80 0 154 56q68 51 106 129v723l158 26v-723q0 -141 25 -190q14 -28 45 -57l-103 -109q-92 76 -110 164q-117 -156 -324 -156q-295 0 -295 297z" />
<glyph unicode="v" horiz-adv-x="987" d="M41 1012l164 35l237 -703q29 -82 50 -174h4q12 68 49 172l231 674l170 2l-381 -1028h-157z" />
<glyph unicode="w" horiz-adv-x="1427" d="M45 1012l160 35l164 -674q16 -66 37 -170h6q8 37 34 147l185 676h170l180 -684q18 -72 41 -149h4q12 61 31 141l162 684h167l-288 -1026h-152l-237 829h-4q-4 -29 -23 -104l-205 -725h-149z" />
<glyph unicode="x" horiz-adv-x="915" d="M-6 0l381 565l-314 451h197l201 -336l194 336h187l-301 -451l391 -565h-195l-276 434l-277 -434h-188z" />
<glyph unicode="y" horiz-adv-x="948" d="M33 997l157 54l209 -662q29 -92 62 -254h4l63 215l201 668h182l-350 -1055q-51 -158 -115 -239q-84 -113 -215 -144l-47 109q166 31 236 313l-66 -10q-29 154 -102 366z" />
<glyph unicode="z" horiz-adv-x="878" d="M63 0v123l555 768h-512v127h680v-131l-530 -764h563l-76 -123h-680z" />
<glyph unicode="{" horiz-adv-x="681" d="M68 528v123q80 0 131 78q45 70 45 154v360q0 98 59 177t156 79h143v-123h-110q-100 0 -101 -162v-360q0 -90 -45 -162q-49 -80 -131 -100v-4q59 -8 107 -58q70 -72 69 -206v-359q0 -162 101 -162h110v-122h-143q-98 0 -160 81q-55 74 -55 175v358q0 88 -43 156 q-49 78 -133 77z" />
<glyph unicode="|" horiz-adv-x="454" d="M160 -37v1585h135v-1585h-135z" />
<glyph unicode="}" horiz-adv-x="681" d="M80 -197h110q100 0 101 162v359q0 135 69 206q47 49 107 58v4q-82 20 -131 100q-45 72 -45 162v360q0 162 -101 162h-110v123h143q96 0 155.5 -79t59.5 -177v-360q0 -84 45 -154q51 -78 131 -78v-123q-84 0 -133 -77q-43 -68 -43 -156v-358q0 -100 -55 -175 q-61 -82 -160 -81h-143v122z" />
<glyph unicode="~" horiz-adv-x="1363" d="M211 578q63 88 104 122q68 57 152 58q74 0 209 -62q172 -78 235 -78q104 0 174 144l68 -98q-66 -92 -104 -123q-70 -57 -154 -58q-74 0 -209 62q-172 78 -235 78q-106 0 -172 -144z" />
<glyph unicode="&#xa1;" horiz-adv-x="544" d="M156 1298q0 53 35.5 91t89.5 38q53 0 89 -37t36 -90t-36 -88.5t-89 -35.5q-51 0 -88 35.5t-37 86.5zM182 -18l39 1026h123l39 -1000z" />
<glyph unicode="&#xa2;" horiz-adv-x="878" d="M115 494q0 283 153 434q102 100 219 114v158h113v-158q109 -14 223 -106l-88 -111q-80 66 -135 76v-790q94 20 162 104l88 -102q-113 -117 -250 -131v-156h-113v154q-193 18 -288 174q-84 133 -84 340zM291 459q-1 -309 196 -350v792q-125 -35 -168 -180 q-29 -92 -28 -262z" />
<glyph unicode="&#xa3;" horiz-adv-x="1138" d="M117 0v160h221v516h-197v135h197v164q0 227 104 358q113 141 334 142q203 0 330 -127l-113 -121q-104 100 -221 100q-262 0 -262 -356v-160h332v-135h-332v-516h504v-160h-897z" />
<glyph unicode="&#xa4;" horiz-adv-x="1060" d="M106 -121q0 49 21 109l168 14l-8 -16q-20 -41 -21 -76q0 -166 266 -166q248 0 248 178q0 102 -82 137q-55 25 -174 25q-27 0 -79 -2t-78 -2q-193 0 -193 147q0 113 172 170l12 4q-100 33 -164.5 113t-64.5 182q0 160 111 254q104 90 266 90q78 0 147 -22l70 -23 q39 -12 94 -12q74 0 141 45l99 -98q-86 -61 -172 -62q-37 0 -70 13q61 -76 62 -174q0 -141 -90.5 -233.5t-229.5 -92.5h-22l-23 -8q-162 -59 -162 -111q0 -49 82 -49h164q164 0 246 -57q113 -78 112 -215q0 -322 -405 -322q-442 0 -443 260zM248 1262l63 75 q121 -113 242 -112q100 0 233 112l56 -75q-29 -43 -105 -93q-100 -68 -190 -67q-86 0 -191 67q-80 51 -108 93zM309 698q0 -199 197 -198q184 0 184 205q0 201 -188 200q-193 0 -193 -207z" />
<glyph unicode="&#xa5;" horiz-adv-x="1099" d="M12 1405h207l266 -537q49 -98 72 -157q18 45 76 157l270 537h193l-340 -639h305v-121h-369l-53 -98v-98h422v-121h-422v-328h-174v328h-397v121h397v108l-47 88h-350v121h284z" />
<glyph unicode="&#xa6;" horiz-adv-x="454" d="M160 -37v660h135v-660h-135zM160 868v680h135v-680h-135z" />
<glyph unicode="&#xa7;" horiz-adv-x="1138" d="M115 -43l157 74q53 -178 258 -178q94 0 158 48t64 140q0 76 -72 129q-27 18 -133 76l-250 131q-150 78 -150 250q0 186 207 286q-158 90 -157 242q0 156 122 248q111 84 271 84q268 0 358 -193l-153 -84q-47 129 -211 129q-90 0 -150 -41q-66 -47 -65 -135 q0 -102 90 -147l200 -101q74 -37 109 -57q61 -35 100 -70q103 -89 103 -210q0 -174 -176 -273q141 -92 141 -252q0 -166 -129 -262q-117 -86 -289 -86q-305 0 -403 252zM307 653q0 -70 58 -121q31 -27 118 -69l183 -88q53 23 93 73t40 105q0 119 -199 217l-119 59 q-82 -35 -116 -61q-57 -45 -58 -115z" />
<glyph unicode="&#xa8;" d="M186 1272q0 43 31 73.5t74 30.5q45 0 75.5 -29.5t30.5 -74.5t-29.5 -77t-74.5 -32t-76 32t-31 77zM608 1272q0 45 31 74.5t76 29.5q43 0 74.5 -30.5t31.5 -73.5q0 -45 -29.5 -77t-74.5 -32t-77 32t-32 77z" />
<glyph unicode="&#xa9;" horiz-adv-x="1638" d="M57 725q0 322 220.5 542t541.5 220q322 0 542 -220t220 -542q0 -319 -221 -540.5t-541 -221.5q-322 0 -542 220t-220 542zM193 725q0 -272 178 -461.5t448 -189.5q268 0 451 192q176 189 176 459t-176 459q-182 193 -451 192q-270 0 -448 -189.5t-178 -461.5zM395 725 q0 209 121 337t328 128q152 0 256 -81t127 -228h-125q-16 90 -89 144t-167 54q-150 0 -236 -104q-80 -96 -80 -250q0 -145 86 -248q90 -109 234 -108q96 0 166.5 57t85.5 152h127q-33 -143 -133.5 -231.5t-245.5 -88.5q-205 0 -330 131t-125 336z" />
<glyph unicode="&#xaa;" horiz-adv-x="802" d="M78 492v110h641v-110h-641zM90 979q0 150 133 221q104 55 271 55q29 0 53 -2v52q0 88 -25 116q-37 41 -98 41q-117 0 -246 -92l-61 94q59 37 100 56q111 49 225 49q168 0 217 -123q16 -41 17 -133v-37l-6 -252q-2 -8 -2 -33q0 -118 63 -153l-65 -90q-84 27 -107 110 q-86 -100 -221 -100q-121 0 -184 61q-43 41 -56 78q-8 23 -8 82zM223 991q0 -141 133 -141q125 0 187 121l4 198q-27 4 -60 5q-264 0 -264 -183z" />
<glyph unicode="&#xab;" d="M119 492l293 438l112 -74l-239 -364l239 -365l-112 -74zM500 492l293 438l112 -74l-239 -364l239 -365l-112 -74z" />
<glyph unicode="&#xad;" horiz-adv-x="618" d="M117 469v156h391v-156h-391z" />
<glyph unicode="&#xae;" horiz-adv-x="1638" d="M57 725q0 322 220.5 542t541.5 220q322 0 542 -220t220 -542q0 -319 -221 -540.5t-541 -221.5q-322 0 -542 220t-220 542zM193 725q0 -272 178 -461.5t448 -189.5q268 0 451 192q176 189 176 459t-176 459q-182 193 -451 192q-270 0 -448 -189.5t-178 -461.5zM528 281 v890h336q311 0 312 -253q0 -219 -236 -244l256 -393h-145l-242 383h-145v-383h-136zM664 774h139q117 0 164 21q73 33 73 129q0 137 -198 137h-178v-287z" />
<glyph unicode="&#xaf;" horiz-adv-x="823" d="M123 1399v110h561v-110h-561z" />
<glyph unicode="&#xb0;" horiz-adv-x="798" d="M70 1067q0 160 85 254t242 94q162 0 250 -100q82 -96 82 -260q0 -156 -88 -248t-242 -92q-158 0 -243.5 96t-85.5 256zM209 1083q0 -125 35 -182q47 -74 162 -74q186 1 186 220q0 123 -37 182q-45 74 -160 74q-186 0 -186 -220z" />
<glyph unicode="&#xb4;" horiz-adv-x="692" d="M100 1253l424 267l88 -158l-458 -205z" />
<glyph unicode="&#xb6;" horiz-adv-x="1228" d="M170 1028q0 207 133 318q123 104 334 104h498v-1708h-148v1573h-242v-1573h-147v905q-176 0 -297 101q-131 109 -131 280z" />
<glyph unicode="&#xb7;" horiz-adv-x="546" d="M139 571q0 57 38 96.5t95 39.5t96.5 -39.5t39.5 -96.5q0 -55 -39 -95t-95 -40q-55 0 -95 40t-40 95z" />
<glyph unicode="&#xb8;" horiz-adv-x="878" d="M287 -354l43 96q72 -33 125 -33q74 0 73 62q0 59 -77 59q-35 0 -78 -4l53 199l121 -15l-25 -96q133 -18 133 -147q0 -78 -60 -124t-140 -46q-78 0 -168 49z" />
<glyph unicode="&#xba;" horiz-adv-x="802" d="M68 1159q0 172 75 279q86 121 250 121q174 0 260 -127q74 -111 74 -291q0 -168 -80 -273q-90 -117 -250 -116q-166 0 -254 125q-76 111 -75 282zM78 492v110h641v-110h-641zM209 1176q0 -309 192 -310q131 0 166 142q13 49 13 127q0 152 -33 217q-47 94 -156 94 q-182 0 -182 -270z" />
<glyph unicode="&#xbb;" d="M119 127l239 365l-239 364l112 74l293 -438l-293 -439zM500 127l239 365l-239 364l112 74l293 -438l-293 -439z" />
<glyph unicode="&#xbf;" horiz-adv-x="681" d="M63 276q0 129 95 232q10 12 121 100q70 55 90 109q12 35 12 121q0 49 -12 106h137q18 -74 18 -139q0 -170 -114 -273l-123 -98q-61 -61 -62 -149q0 -78 53.5 -124t131.5 -46q96 0 196 49q31 16 82 45l68 -113q-158 -121 -377 -121q-141 0 -228.5 81t-87.5 220zM285 1286 q0 59 38.5 100t98.5 41q57 0 98 -42t41 -99t-40 -97t-97 -40t-98 40t-41 97z" />
<glyph unicode="&#xc0;" horiz-adv-x="1169" d="M8 0l469 1405h219l465 -1405h-190l-133 432h-525l-135 -432h-170zM252 1690l88 157l424 -266l-53 -96zM360 569h435l-215 688l-70 -206q-27 -88 -150 -482z" />
<glyph unicode="&#xc1;" horiz-adv-x="1169" d="M8 0l469 1405h219l465 -1405h-190l-133 432h-525l-135 -432h-170zM360 569h435l-215 688l-70 -206q-27 -88 -150 -482zM408 1581l423 266l89 -157l-459 -205z" />
<glyph unicode="&#xc2;" horiz-adv-x="1169" d="M8 0l469 1405h219l465 -1405h-190l-133 432h-525l-135 -432h-170zM238 1567l348 276l350 -276l-74 -90l-284 174l-277 -174zM360 569h435l-215 688l-70 -206q-27 -88 -150 -482z" />
<glyph unicode="&#xc3;" horiz-adv-x="1169" d="M8 0l469 1405h219l465 -1405h-190l-133 432h-525l-135 -432h-170zM213 1630q55 70 108.5 99.5t137.5 29.5q53 0 132 -38t128 -38q68 0 143 80l58 -92q-104 -129 -248 -129q-53 0 -132 38t-128 38q-66 0 -142 -80zM360 569h435l-215 688l-70 -206q-27 -88 -150 -482z" />
<glyph unicode="&#xc4;" horiz-adv-x="1169" d="M8 0l469 1405h219l465 -1405h-190l-133 432h-525l-135 -432h-170zM268 1599q0 43 31 74t74 31q45 0 75.5 -30t30.5 -75t-29.5 -76.5t-74.5 -31.5t-76 31.5t-31 76.5zM360 569h435l-215 688l-70 -206q-27 -88 -150 -482zM690 1599q0 45 31 75t76 30q43 0 74.5 -31 t31.5 -74q0 -45 -29.5 -76.5t-74.5 -31.5t-77 31.5t-32 76.5z" />
<glyph unicode="&#xc5;" horiz-adv-x="1169" d="M8 0l469 1405h219l465 -1405h-190l-133 432h-525l-135 -432h-170zM360 569h435l-215 688l-70 -206q-27 -88 -150 -482zM369 1677q0 88 64.5 152.5t152.5 64.5q90 0 151.5 -63.5t61.5 -153.5t-63.5 -153.5t-153.5 -63.5t-151.5 63.5t-61.5 153.5zM461 1677q0 -49 35.5 -86 t85.5 -37q49 0 86 37t37 86t-34 86t-83 37q-51 0 -89 -35.5t-38 -87.5z" />
<glyph unicode="&#xc6;" horiz-adv-x="1884" d="M39 0l868 1395h832l-23 -140h-575v-454h481v-146h-481v-510h618v-145h-788v432h-484l-266 -432h-182zM571 569h400v666z" />
<glyph unicode="&#xc7;" horiz-adv-x="1097" d="M98 698q0 287 148 494q166 231 442 231q205 0 354 -114l-90 -109q-121 88 -266 88q-242 0 -346 -241q-59 -137 -59 -373q0 -186 45 -297q104 -258 376 -258q147 0 275 90l90 -117q-176 -115 -391 -115l-14 -63q133 -18 133 -147q0 -78 -60.5 -124t-140.5 -46 q-78 0 -168 49l43 96q72 -33 125 -33q74 0 74 62q0 59 -78 59q-25 0 -53 -4l-19 20l39 144q-229 49 -352 266q-106 188 -107 442z" />
<glyph unicode="&#xc8;" horiz-adv-x="1060" d="M188 0v1395h768l-22 -140h-576v-454h482v-146h-482v-510h619v-145h-789zM295 1690l88 157l424 -266l-53 -96z" />
<glyph unicode="&#xc9;" horiz-adv-x="1060" d="M188 0v1395h768l-22 -140h-576v-454h482v-146h-482v-510h619v-145h-789zM356 1581l424 266l88 -157l-458 -205z" />
<glyph unicode="&#xca;" horiz-adv-x="1060" d="M188 0v1395h768l-22 -140h-576v-454h482v-146h-482v-510h619v-145h-789zM238 1567l348 276l350 -276l-74 -90l-284 174l-277 -174z" />
<glyph unicode="&#xcb;" horiz-adv-x="1060" d="M188 0v1395h768l-22 -140h-576v-454h482v-146h-482v-510h619v-145h-789zM268 1599q0 43 31 74t74 31q45 0 75.5 -30t30.5 -75t-29.5 -76.5t-74.5 -31.5t-76 31.5t-31 76.5zM690 1599q0 45 31 75t76 30q43 0 74.5 -31t31.5 -74q0 -45 -29.5 -76.5t-74.5 -31.5t-77 31.5 t-32 76.5z" />
<glyph unicode="&#xcc;" horiz-adv-x="548" d="M-49 1690l88 157l424 -266l-53 -96zM193 0v1405h163v-1405h-163z" />
<glyph unicode="&#xcd;" horiz-adv-x="548" d="M111 1581l424 266l88 -157l-459 -205zM193 0v1405h163v-1405h-163z" />
<glyph unicode="&#xce;" horiz-adv-x="548" d="M-57 1567l348 276l350 -276l-74 -90l-284 174l-277 -174zM193 0v1405h163v-1405h-163z" />
<glyph unicode="&#xcf;" horiz-adv-x="548" d="M-39 1599q0 43 31 74t74 31q45 0 75.5 -30t30.5 -75t-29.5 -76.5t-74.5 -31.5t-76 31.5t-31 76.5zM193 0v1405h163v-1405h-163zM383 1599q0 45 30.5 75t75.5 30q43 0 75 -31t32 -74q0 -45 -29.5 -76.5t-74.5 -31.5t-77 31.5t-32 76.5z" />
<glyph unicode="&#xd0;" horiz-adv-x="1243" d="M111 694q0 397 217 590q152 133 366 133q223 0 385 -139l-75 -104q-160 109 -306 108q-266 0 -350 -238q-55 -156 -55 -356q0 -283 98 -426q49 -72 152 -112q92 -37 188 -37q135 0 223 55v428h-282l-33 139h473v-655q-164 -106 -395 -107q-305 0 -463 213 q-143 193 -143 508zM324 1649l49 65q141 -133 284 -133q113 0 277 133l51 -69q-35 -51 -108 -99q-104 -68 -209 -67q-106 0 -222 69q-86 53 -122 101z" />
<glyph unicode="&#xd1;" horiz-adv-x="1277" d="M174 0v1401h195l467 -895q53 -102 131 -293q-8 111 -19 426l-6 762h166v-1401h-176l-451 858q-115 219 -159 336q16 -195 18 -381l8 -813h-174zM293 1630q55 70 108.5 99.5t137.5 29.5q53 0 132 -38t128 -38q68 0 143 80l57 -92q-104 -129 -247 -129q-53 0 -132 38 t-128 38q-66 0 -142 -80z" />
<glyph unicode="&#xd2;" horiz-adv-x="1353" d="M117 709q0 301 125 493q147 227 434 228q299 0 446 -238q123 -195 123 -512q0 -385 -205 -571q-150 -135 -356 -136q-289 0 -440 232q-127 197 -127 504zM303 743q0 -336 90 -489q41 -68 131 -111q84 -41 168 -41q365 0 365 553q0 305 -68 447q-92 193 -313 192 q-213 0 -301 -164q-72 -135 -72 -387zM381 1690l88 157l424 -266l-53 -96z" />
<glyph unicode="&#xd3;" horiz-adv-x="1353" d="M117 709q0 301 125 493q147 227 434 228q299 0 446 -238q123 -195 123 -512q0 -385 -205 -571q-150 -135 -356 -136q-289 0 -440 232q-127 197 -127 504zM303 743q0 -336 90 -489q41 -68 131 -111q84 -41 168 -41q365 0 365 553q0 305 -68 447q-92 193 -313 192 q-213 0 -301 -164q-72 -135 -72 -387zM510 1581l424 266l88 -157l-459 -205z" />
<glyph unicode="&#xd4;" horiz-adv-x="1353" d="M117 709q0 301 125 493q147 227 434 228q299 0 446 -238q123 -195 123 -512q0 -385 -205 -571q-150 -135 -356 -136q-289 0 -440 232q-127 197 -127 504zM303 743q0 -336 90 -489q41 -68 131 -111q84 -41 168 -41q365 0 365 553q0 305 -68 447q-92 193 -313 192 q-213 0 -301 -164q-72 -135 -72 -387zM379 1567l348 276l350 -276l-73 -90l-285 174l-277 -174z" />
<glyph unicode="&#xd5;" horiz-adv-x="1353" d="M117 709q0 301 125 493q147 227 434 228q299 0 446 -238q123 -195 123 -512q0 -385 -205 -571q-150 -135 -356 -136q-289 0 -440 232q-127 197 -127 504zM303 743q0 -336 90 -489q41 -68 131 -111q84 -41 168 -41q365 0 365 553q0 305 -68 447q-92 193 -313 192 q-213 0 -301 -164q-72 -135 -72 -387zM373 1630q55 70 108.5 99.5t136.5 29.5q53 0 132 -38t129 -38q68 0 143 80l57 -92q-104 -129 -248 -129q-53 0 -131.5 38t-128.5 38q-66 0 -141 -80z" />
<glyph unicode="&#xd6;" horiz-adv-x="1353" d="M117 709q0 301 125 493q147 227 434 228q299 0 446 -238q123 -195 123 -512q0 -385 -205 -571q-150 -135 -356 -136q-289 0 -440 232q-127 197 -127 504zM303 743q0 -336 90 -489q41 -68 131 -111q84 -41 168 -41q365 0 365 553q0 305 -68 447q-92 193 -313 192 q-213 0 -301 -164q-72 -135 -72 -387zM391 1599q0 43 31 74t74 31q45 0 75.5 -30t30.5 -75t-29.5 -76.5t-74.5 -31.5t-76 31.5t-31 76.5zM813 1599q0 45 30.5 75t76.5 30q43 0 74.5 -31t31.5 -74q0 -45 -29.5 -76.5t-74.5 -31.5t-77 31.5t-32 76.5z" />
<glyph unicode="&#xd7;" d="M150 254l258 258l-258 258l104 104l258 -258l258 258l104 -104l-258 -258l258 -258l-104 -104l-258 258l-258 -258z" />
<glyph unicode="&#xd8;" horiz-adv-x="1353" d="M117 709q0 301 125 493q147 227 434 228q180 0 317 -97l131 219l109 -65l-146 -244q10 -14 31 -43q127 -192 127 -520q0 -385 -205 -571q-150 -135 -356 -136q-174 0 -305 93l-139 -232l-107 66l152 252q-168 193 -168 557zM303 743q0 -276 68 -446l544 907 q-96 90 -239 90q-213 0 -301 -164q-72 -135 -72 -387zM453 186q104 -84 239 -84q365 0 365 553q0 287 -62 435z" />
<glyph unicode="&#xd9;" horiz-adv-x="1247" d="M162 424v981h166v-899q0 -150 14 -215q37 -172 285 -172q174 0 239 80q61 72 62 247v959h166v-977q0 -131 -13 -186q-33 -143 -178 -211q-117 -55 -285 -56q-315 0 -415 203q-41 82 -41 246zM332 1690l88 157l424 -266l-53 -96z" />
<glyph unicode="&#xda;" horiz-adv-x="1247" d="M162 424v981h166v-899q0 -150 14 -215q37 -172 285 -172q174 0 239 80q61 72 62 247v959h166v-977q0 -131 -13 -186q-33 -143 -178 -211q-117 -55 -285 -56q-315 0 -415 203q-41 82 -41 246zM408 1581l423 266l89 -157l-459 -205z" />
<glyph unicode="&#xdb;" horiz-adv-x="1247" d="M162 424v981h166v-899q0 -150 14 -215q37 -172 285 -172q174 0 239 80q61 72 62 247v959h166v-977q0 -131 -13 -186q-33 -143 -178 -211q-117 -55 -285 -56q-315 0 -415 203q-41 82 -41 246zM274 1567l349 276l350 -276l-74 -90l-285 174l-276 -174z" />
<glyph unicode="&#xdc;" horiz-adv-x="1247" d="M162 424v981h166v-899q0 -150 14 -215q37 -172 285 -172q174 0 239 80q61 72 62 247v959h166v-977q0 -131 -13 -186q-33 -143 -178 -211q-117 -55 -285 -56q-315 0 -415 203q-41 82 -41 246zM309 1599q0 43 31 74t74 31q45 0 75.5 -30t30.5 -75t-29.5 -76.5t-74.5 -31.5 t-76 31.5t-31 76.5zM731 1599q0 45 31 75t76 30q43 0 74.5 -31t31.5 -74q0 -45 -29.5 -76.5t-74.5 -31.5t-77 31.5t-32 76.5z" />
<glyph unicode="&#xdd;" horiz-adv-x="548" d="M162 1628q0 47 32.5 81t79.5 34t83 -33t36 -80t-32.5 -83t-79.5 -36t-82 35t-35 82h-2zM193 0v1405h163v-1405h-163z" />
<glyph unicode="&#xde;" horiz-adv-x="1134" d="M70 100l73 131q168 -121 377 -120q135 0 223 61q100 70 101 201q0 186 -252 262l-141 43q-184 55 -250 125q-88 92 -88 229q0 190 135 301q125 102 319 103q225 0 424 -136l-73 -120q-182 119 -343 118q-121 0 -196 -53q-84 -61 -84 -178q0 -156 233 -229l162 -52 q340 -108 340 -389q0 -209 -194 -338q-90 -59 -199 -77l-14 -58q133 -18 133 -147q0 -78 -60.5 -124t-140.5 -46q-78 0 -168 49l43 96q72 -33 125 -33q74 0 74 62q0 59 -78 59q-35 0 -78 -4l39 137q-240 2 -442 127z" />
<glyph unicode="&#xdf;" horiz-adv-x="1171" d="M29 897v121l149 -8v45q0 180 101.5 285.5t283.5 105.5q147 0 252 -80q115 -90 115 -233q0 -125 -101 -199q-59 -45 -178 -84q-35 -12 -35 -33q0 -16 37 -39q133 -61 256 -131q146 -82 146 -291q0 -197 -156 -311q-94 -70 -229 -70q-129 0 -203 37l47 107q76 -27 133 -27 q104 0 171 73t67 179q0 135 -88 199q-31 23 -140 80q-131 70 -165 118q-16 23 -17 62q0 90 127 151q88 43 109 62q49 45 49 129q0 86 -62 137q-57 45 -147 45q-215 0 -215 -283v-26l10 -811q2 -127 -24 -207h-154q20 78 18 240l-6 659z" />
<glyph unicode="&#xe0;" d="M88 264q0 199 180 293q141 74 361 74q37 0 71 -2v71q0 123 -32 160q-49 55 -138 55q-174 0 -325 -120l-80 114q207 137 428 138q217 0 283 -160q23 -55 22 -174v-51l-8 -336q-2 -14 -2 -47q0 -86 10 -119q17 -55 74 -84l-82 -115q-111 35 -139 150q-137 -137 -295 -138 q-147 0 -234 72q-94 76 -94 219zM215 1362l88 158l424 -267l-53 -96zM266 279q0 -186 176 -187q170 0 248 160l6 266q-70 4 -80 4q-350 0 -350 -243z" />
<glyph unicode="&#xe1;" d="M88 264q0 199 180 293q141 74 361 74q37 0 71 -2v71q0 123 -32 160q-49 55 -138 55q-174 0 -325 -120l-80 114q207 137 428 138q217 0 283 -160q23 -55 22 -174v-51l-8 -336q-2 -14 -2 -47q0 -86 10 -119q17 -55 74 -84l-82 -115q-111 35 -139 150q-137 -137 -295 -138 q-147 0 -234 72q-94 76 -94 219zM266 279q0 -186 176 -187q170 0 248 160l6 266q-70 4 -80 4q-350 0 -350 -243zM285 1253l424 267l88 -158l-459 -205z" />
<glyph unicode="&#xe2;" d="M88 264q0 199 180 293q141 74 361 74q37 0 71 -2v71q0 123 -32 160q-49 55 -138 55q-174 0 -325 -120l-80 114q207 137 428 138q217 0 283 -160q23 -55 22 -174v-51l-8 -336q-2 -14 -2 -47q0 -86 10 -119q17 -55 74 -84l-82 -115q-111 35 -139 150q-137 -137 -295 -138 q-147 0 -234 72q-94 76 -94 219zM139 1239l348 277l351 -277l-74 -90l-285 174l-276 -174zM266 279q0 -186 176 -187q170 0 248 160l6 266q-70 4 -80 4q-350 0 -350 -243z" />
<glyph unicode="&#xe3;" d="M88 264q0 199 180 293q141 74 361 74q37 0 71 -2v71q0 123 -32 160q-49 55 -138 55q-174 0 -325 -120l-80 114q207 137 428 138q217 0 283 -160q23 -55 22 -174v-51l-8 -336q-2 -14 -2 -47q0 -86 10 -119q17 -55 74 -84l-82 -115q-111 35 -139 150q-137 -137 -295 -138 q-147 0 -234 72q-94 76 -94 219zM133 1303q55 70 108.5 99.5t137.5 29.5q53 0 132 -38t128 -38q68 0 143 80l58 -93q-104 -129 -248 -129q-53 0 -132 38t-128 38q-66 0 -142 -80zM266 279q0 -186 176 -187q170 0 248 160l6 266q-70 4 -80 4q-350 0 -350 -243z" />
<glyph unicode="&#xe4;" d="M88 264q0 199 180 293q141 74 361 74q37 0 71 -2v71q0 123 -32 160q-49 55 -138 55q-174 0 -325 -120l-80 114q207 137 428 138q217 0 283 -160q23 -55 22 -174v-51l-8 -336q-2 -14 -2 -47q0 -86 10 -119q17 -55 74 -84l-82 -115q-111 35 -139 150q-137 -137 -295 -138 q-147 0 -234 72q-94 76 -94 219zM186 1272q0 43 31 73.5t74 30.5q45 0 75.5 -29.5t30.5 -74.5t-29.5 -77t-74.5 -32t-76 32t-31 77zM266 279q0 -186 176 -187q170 0 248 160l6 266q-70 4 -80 4q-350 0 -350 -243zM608 1272q0 45 31 74.5t76 29.5q43 0 74.5 -30.5t31.5 -73.5 q0 -45 -29.5 -77t-74.5 -32t-77 32t-32 77z" />
<glyph unicode="&#xe5;" d="M88 264q0 199 180 293q141 74 361 74q37 0 71 -2v71q0 123 -32 160q-49 55 -138 55q-174 0 -325 -120l-80 114q207 137 428 138q217 0 283 -160q23 -55 22 -174v-51l-8 -336q-2 -14 -2 -47q0 -86 10 -119q17 -55 74 -84l-82 -115q-111 35 -139 150q-137 -137 -295 -138 q-147 0 -234 72q-94 76 -94 219zM266 279q0 -186 176 -187q170 0 248 160l6 266q-70 4 -80 4q-350 0 -350 -243zM301 1350q0 88 64.5 152.5t152.5 64.5q90 0 151.5 -63.5t61.5 -153.5t-63.5 -153.5t-153.5 -63.5t-151.5 63.5t-61.5 153.5zM393 1350q0 -49 36 -86t85 -37 t86 37t37 86t-34 86t-83 37q-51 0 -89 -36t-38 -87z" />
<glyph unicode="&#xe6;" horiz-adv-x="1581" d="M88 264q0 199 180 293q141 74 361 74h33q20 -2 38 -2v71q0 123 -32 160q-49 55 -138 55q-174 0 -325 -120l-80 114q207 137 428 138q168 0 248 -134q131 135 286 136q170 0 277 -113q76 -80 100 -201q16 -78 17 -229v-23h-637v-24q0 -152 47 -223q82 -125 254 -125 q145 0 250 96l61 -103q-139 -127 -344 -127q-170 0 -330 138q-4 12 -20 37q-63 -76 -156 -125q-98 -53 -190 -54q-147 0 -234 72q-94 76 -94 219zM266 279q0 -186 176 -187q170 0 248 160l6 266q-14 0 -39.5 2t-40.5 2q-350 0 -350 -243zM844 604h467q0 317 -232 318 q-223 0 -235 -318z" />
<glyph unicode="&#xe7;" horiz-adv-x="878" d="M115 494q0 283 153 434q121 119 277 119q145 0 278 -111l-88 -111q-100 82 -194 82q-250 0 -250 -448q0 -354 252 -355q127 0 219 111l88 -102q-133 -135 -311 -136l-17 -63q133 -18 133 -147q0 -78 -60 -124t-140 -46q-78 0 -168 49l43 96q72 -33 125 -33q74 0 73 62 q0 59 -77 59q-25 0 -54 -4l-18 20l39 146q-158 37 -238 192q-66 129 -65 310z" />
<glyph unicode="&#xe8;" d="M100 520q0 215 105 363q119 166 323 166q170 0 277 -113q76 -80 100 -201q16 -78 17 -229v-23h-637v-24q0 -152 47 -223q82 -125 254 -125q145 0 250 96l61 -103q-139 -127 -344 -127q-227 0 -346 162q-106 145 -107 381zM240 1362l88 158l424 -267l-54 -96zM285 604h467 q-2 145 -43 219q-55 98 -189 99q-223 0 -235 -318z" />
<glyph unicode="&#xe9;" d="M100 520q0 215 105 363q119 166 323 166q170 0 277 -113q76 -80 100 -201q16 -78 17 -229v-23h-637v-24q0 -152 47 -223q82 -125 254 -125q145 0 250 96l61 -103q-139 -127 -344 -127q-227 0 -346 162q-106 145 -107 381zM274 1253l424 267l88 -158l-458 -205zM285 604 h467q-2 145 -43 219q-55 98 -189 99q-223 0 -235 -318z" />
<glyph unicode="&#xea;" d="M100 520q0 215 105 363q119 166 323 166q170 0 277 -113q76 -80 100 -201q16 -78 17 -229v-23h-637v-24q0 -152 47 -223q82 -125 254 -125q145 0 250 96l61 -103q-139 -127 -344 -127q-227 0 -346 162q-106 145 -107 381zM158 1239l348 277l350 -277l-74 -90l-284 174 l-277 -174zM285 604h467q-2 145 -43 219q-55 98 -189 99q-223 0 -235 -318z" />
<glyph unicode="&#xeb;" d="M100 520q0 215 105 363q119 166 323 166q170 0 277 -113q76 -80 100 -201q16 -78 17 -229v-23h-637v-24q0 -152 47 -223q82 -125 254 -125q145 0 250 96l61 -103q-139 -127 -344 -127q-227 0 -346 162q-106 145 -107 381zM205 1272q0 43 30.5 73.5t73.5 30.5 q45 0 76 -29.5t31 -74.5t-30 -77t-75 -32t-75.5 32t-30.5 77zM285 604h467q-2 145 -43 219q-55 98 -189 99q-223 0 -235 -318zM627 1272q0 45 30.5 74.5t75.5 29.5q43 0 75 -30.5t32 -73.5q0 -45 -30 -77t-75 -32t-76.5 32t-31.5 77z" />
<glyph unicode="&#xec;" horiz-adv-x="509" d="M-74 1362l88 158l424 -267l-53 -96zM166 0v1016l172 26v-1042h-172z" />
<glyph unicode="&#xed;" horiz-adv-x="509" d="M49 1253l424 267l88 -158l-459 -205zM166 0v1016l172 26v-1042h-172z" />
<glyph unicode="&#xee;" horiz-adv-x="509" d="M-100 1239l348 277l350 -277l-74 -90l-284 174l-277 -174zM166 0v1016l172 26v-1042h-172z" />
<glyph unicode="&#xef;" horiz-adv-x="509" d="M-59 1272q0 43 30.5 73.5t73.5 30.5q45 0 76 -29.5t31 -74.5t-30 -77t-75 -32t-75.5 32t-30.5 77zM166 0v1016l172 26v-1042h-172zM362 1272q0 45 31 74.5t76 29.5q43 0 74.5 -30.5t31.5 -73.5q0 -45 -29.5 -77t-74.5 -32t-77 32t-32 77z" />
<glyph unicode="&#xf0;" horiz-adv-x="1060" d="M106 -121q0 49 21 109l168 14l-8 -16q-20 -41 -21 -76q0 -166 266 -166q248 0 248 178q0 102 -82 137q-55 25 -174 25q-27 0 -79 -2t-78 -2q-193 0 -193 147q0 113 172 170l12 4q-100 33 -164.5 113t-64.5 182q0 160 111 254q104 90 266 90q78 0 147 -22l70 -23 q39 -12 94 -12q74 0 141 45l99 -98q-86 -61 -172 -62q-37 0 -70 13q61 -76 62 -174q0 -141 -90.5 -233.5t-229.5 -92.5h-22l-23 -8q-162 -59 -162 -111q0 -49 82 -49h164q164 0 246 -57q113 -78 112 -215q0 -322 -405 -322q-442 0 -443 260zM248 1262l63 75 q121 -113 242 -112q100 0 233 112l56 -75q-29 -43 -105 -93q-102 -68 -190 -67q-86 0 -191 67q-80 51 -108 93zM309 698q0 -199 197 -198q184 0 184 205q0 201 -188 200q-193 0 -193 -207z" />
<glyph unicode="&#xf1;" horiz-adv-x="1097" d="M137 1001l156 43q37 -80 37 -159q158 158 321 157q80 0 149.5 -39.5t100.5 -109.5q25 -55 25 -119v-774h-162v690q0 104 -25 150q-33 63 -125 63q-68 0 -153 -47q-78 -41 -129 -96v-760h-156v760q0 156 -39 241zM182 1303q55 70 108.5 99.5t137.5 29.5q53 0 132 -38 t128 -38q68 0 143 80l58 -93q-104 -129 -248 -129q-53 0 -132 38t-128 38q-66 0 -141 -80z" />
<glyph unicode="&#xf2;" horiz-adv-x="1124" d="M123 508q0 227 100 371q117 164 334 163q229 0 346 -172q98 -145 98 -385q0 -283 -159 -422q-113 -98 -279 -98q-221 0 -338 166q-102 145 -102 377zM246 1362l88 158l424 -267l-53 -96zM297 535q0 -195 41 -291q63 -145 229 -146q252 0 252 375q0 193 -39 289 q-61 150 -225 149q-154 0 -213 -120q-45 -86 -45 -256z" />
<glyph unicode="&#xf3;" horiz-adv-x="1124" d="M123 508q0 227 100 371q117 164 334 163q229 0 346 -172q98 -145 98 -385q0 -283 -159 -422q-113 -98 -279 -98q-221 0 -338 166q-102 145 -102 377zM297 535q0 -195 41 -291q63 -145 229 -146q252 0 252 375q0 193 -39 289q-61 150 -225 149q-154 0 -213 -120 q-45 -86 -45 -256zM336 1253l424 267l88 -158l-459 -205z" />
<glyph unicode="&#xf4;" horiz-adv-x="1124" d="M123 508q0 227 100 371q117 164 334 163q229 0 346 -172q98 -145 98 -385q0 -283 -159 -422q-113 -98 -279 -98q-221 0 -338 166q-102 145 -102 377zM201 1239l348 277l350 -277l-74 -90l-284 174l-277 -174zM297 535q0 -195 41 -291q63 -145 229 -146q252 0 252 375 q0 193 -39 289q-61 150 -225 149q-154 0 -213 -120q-45 -86 -45 -256z" />
<glyph unicode="&#xf5;" horiz-adv-x="1124" d="M123 508q0 227 100 371q117 164 334 163q229 0 346 -172q98 -145 98 -385q0 -283 -159 -422q-113 -98 -279 -98q-221 0 -338 166q-102 145 -102 377zM195 1303q55 70 108 99.5t137 29.5q53 0 132 -38t128 -38q68 0 144 80l57 -93q-104 -129 -248 -129q-53 0 -132 38 t-128 38q-66 0 -141 -80zM297 535q0 -195 41 -291q63 -145 229 -146q252 0 252 375q0 193 -39 289q-61 150 -225 149q-154 0 -213 -120q-45 -86 -45 -256z" />
<glyph unicode="&#xf6;" horiz-adv-x="1124" d="M123 508q0 227 100 371q117 164 334 163q229 0 346 -172q98 -145 98 -385q0 -283 -159 -422q-113 -98 -279 -98q-221 0 -338 166q-102 145 -102 377zM248 1272q0 43 30.5 73.5t73.5 30.5q45 0 76 -29.5t31 -74.5t-30 -77t-75 -32t-75.5 32t-30.5 77zM297 535 q0 -195 41 -291q63 -145 229 -146q252 0 252 375q0 193 -39 289q-61 150 -225 149q-154 0 -213 -120q-45 -86 -45 -256zM670 1272q0 45 30.5 74.5t75.5 29.5q43 0 75 -30.5t32 -73.5q0 -45 -30 -77t-75 -32t-76.5 32t-31.5 77z" />
<glyph unicode="&#xf7;" horiz-adv-x="1744" d="M123 891v121h98v168q0 164 113 250q70 53 180 53q135 0 225 -60l-59 -112q-82 47 -152 47q-139 0 -139 -180v-166h404v168q0 164 112 250q70 53 180 53q135 0 226 -60l-60 -112q-82 47 -151 47q-139 0 -139 -180v-166h602v-1012h-170v891h-432v-891h-168v891h-404v-891 h-168v891h-98zM1354 1333q0 53 35.5 90t89.5 37q53 0 89 -36t36 -89t-36 -89t-89 -36q-51 0 -88 36t-37 87z" />
<glyph unicode="&#xf8;" horiz-adv-x="1124" d="M123 508q0 227 100 371q117 164 334 163q125 0 219 -55l103 170l100 -61l-111 -183q133 -152 133 -428q0 -283 -159 -422q-113 -98 -279 -98q-131 0 -227 62l-98 -162l-99 61l107 178q-123 145 -123 404zM297 535q0 -170 39 -281l366 610q-61 47 -147 47 q-154 0 -213 -120q-45 -86 -45 -256zM410 150q68 -51 157 -52q252 0 252 375q0 195 -41 289z" />
<glyph unicode="&#xf9;" horiz-adv-x="1097" d="M174 262v750l158 30v-733q0 -207 186 -207q80 0 154 56q68 51 106 129v723l158 26v-723q0 -141 25 -190q14 -28 45 -57l-103 -109q-92 76 -110 164q-117 -156 -324 -156q-295 0 -295 297zM283 1362l88 158l424 -267l-54 -96z" />
<glyph unicode="&#xfa;" horiz-adv-x="1097" d="M174 262v750l158 30v-733q0 -207 186 -207q80 0 154 56q68 51 106 129v723l158 26v-723q0 -141 25 -190q14 -28 45 -57l-103 -109q-92 76 -110 164q-117 -156 -324 -156q-295 0 -295 297zM326 1253l424 267l88 -158l-459 -205z" />
<glyph unicode="&#xfb;" horiz-adv-x="1097" d="M174 262v750l158 30v-733q0 -207 186 -207q80 0 154 56q68 51 106 129v723l158 26v-723q0 -141 25 -190q14 -28 45 -57l-103 -109q-92 76 -110 164q-117 -156 -324 -156q-295 0 -295 297zM213 1239l348 277l350 -277l-73 -90l-285 174l-277 -174z" />
<glyph unicode="&#xfc;" horiz-adv-x="1097" d="M174 262v750l158 30v-733q0 -207 186 -207q80 0 154 56q68 51 106 129v723l158 26v-723q0 -141 25 -190q14 -28 45 -57l-103 -109q-92 76 -110 164q-117 -156 -324 -156q-295 0 -295 297zM236 1272q0 43 30.5 73.5t73.5 30.5q45 0 75.5 -29.5t30.5 -74.5t-29.5 -77 t-74.5 -32t-75.5 32t-30.5 77zM657 1272q0 45 31 74.5t76 29.5q43 0 74.5 -30.5t31.5 -73.5q0 -45 -29.5 -77t-74.5 -32t-77 32t-32 77z" />
<glyph unicode="&#xfd;" horiz-adv-x="509" d="M168 0v1016l170 26v-1042h-170z" />
<glyph unicode="&#xfe;" horiz-adv-x="913" d="M59 74l62 119q158 -96 323 -97q90 0 148.5 45t58.5 131q0 129 -168 168l-127 29q-258 57 -258 279q0 145 111 233q102 80 252 80q168 0 311 -82l-59 -119q-154 74 -256 74q-82 0 -135 -41q-57 -47 -58 -127q0 -117 148 -148l135 -28q272 -58 272 -285q0 -141 -89 -227 t-232 -103l-17 -67q113 -16 113 -127q0 -66 -51 -104.5t-119 -38.5q-70 0 -143 43l36 79q59 -27 107 -26q61 0 61 51t-67 51q-29 0 -66 -4l37 139q-186 12 -330 103z" />
<glyph unicode="&#xff;" horiz-adv-x="948" d="M33 997l157 54l209 -662q29 -92 62 -254h4l63 215l201 668h182l-350 -1055q-51 -158 -115 -239q-84 -113 -215 -144l-47 109q166 31 236 313l-66 -10q-29 154 -102 366zM145 1272q0 43 31 73.5t74 30.5q45 0 75.5 -29.5t30.5 -74.5t-29.5 -77t-74.5 -32t-76 32t-31 77z M567 1272q0 45 31 74.5t76 29.5q43 0 74.5 -30.5t31.5 -73.5q0 -45 -29.5 -77t-74.5 -32t-77 32t-32 77z" />
<glyph unicode="&#x152;" horiz-adv-x="1732" d="M84 696q0 342 160 521q96 106 198 145q88 33 244 33h967l-23 -140h-575v-454h481v-146h-481v-510h618v-145l-901 -2q-180 0 -254 16q-98 23 -196 92q-238 170 -238 590zM266 717q0 -233 76 -385q100 -197 309 -197q152 0 234 12v1090q-111 14 -180 14q-86 0 -144 -8 q-129 -18 -201 -137q-94 -156 -94 -389z" />
<glyph unicode="&#x153;" horiz-adv-x="1728" d="M123 508q0 227 100 371q117 164 334 163q227 0 344 -174q12 20 27 37q121 143 305 144q170 0 276 -113q76 -80 101 -201q16 -78 16 -229v-23h-637v-24q0 -152 47 -223q82 -125 254 -125q145 0 250 96l62 -103q-139 -127 -345 -127q-193 0 -307 119q-20 20 -35 47 q-33 -43 -73 -80q-111 -98 -279 -98q-221 0 -338 166q-102 145 -102 377zM297 535q0 -195 41 -291q63 -145 229 -146q252 0 252 375q0 193 -39 289q-61 150 -225 149q-154 0 -213 -120q-45 -86 -45 -256zM989 604h467q-2 145 -43 219q-55 98 -188 99q-223 0 -236 -318z" />
<glyph unicode="&#x178;" horiz-adv-x="1099" d="M12 1405h207l266 -537q49 -98 72 -157q18 45 76 157l270 537h193l-457 -858v-547h-174v557zM227 1599q0 43 31 74t74 31q45 0 75.5 -30t30.5 -75t-29.5 -76.5t-74.5 -31.5t-76 31.5t-31 76.5zM649 1599q0 45 31 75t76 30q43 0 74.5 -31t31.5 -74q0 -45 -29.5 -76.5 t-74.5 -31.5t-77 31.5t-32 76.5z" />
<glyph unicode="&#x2c6;" horiz-adv-x="823" d="M59 1239l349 277l350 -277l-74 -90l-285 174l-276 -174z" />
<glyph unicode="&#x2dc;" horiz-adv-x="778" d="M29 1303q55 70 108 99.5t137 29.5q53 0 132 -38t129 -38q68 0 143 80l57 -93q-104 -129 -248 -129q-53 0 -132 38t-128 38q-66 0 -141 -80z" />
<glyph unicode="&#x2000;" horiz-adv-x="947" />
<glyph unicode="&#x2001;" horiz-adv-x="1894" />
<glyph unicode="&#x2002;" horiz-adv-x="947" />
<glyph unicode="&#x2003;" horiz-adv-x="1894" />
<glyph unicode="&#x2004;" horiz-adv-x="631" />
<glyph unicode="&#x2005;" horiz-adv-x="473" />
<glyph unicode="&#x2006;" horiz-adv-x="315" />
<glyph unicode="&#x2007;" horiz-adv-x="315" />
<glyph unicode="&#x2008;" horiz-adv-x="236" />
<glyph unicode="&#x2009;" horiz-adv-x="378" />
<glyph unicode="&#x200a;" horiz-adv-x="105" />
<glyph unicode="&#x2010;" horiz-adv-x="618" d="M117 469v156h391v-156h-391z" />
<glyph unicode="&#x2011;" horiz-adv-x="618" d="M117 469v156h391v-156h-391z" />
<glyph unicode="&#x2012;" horiz-adv-x="618" d="M117 469v156h391v-156h-391z" />
<glyph unicode="&#x2013;" horiz-adv-x="985" d="M-6 512v121h993v-121h-993z" />
<glyph unicode="&#x2014;" horiz-adv-x="1964" d="M254 512v121h1458v-121h-1458z" />
<glyph unicode="&#x2018;" horiz-adv-x="532" d="M104 1106q0 199 242 344l10 6l58 -90q-121 -59 -140 -182l23 4q49 0 81 -40t32 -91q0 -61 -41 -105.5t-103 -44.5q-78 0 -123 62q-39 55 -39 137z" />
<glyph unicode="&#x2019;" horiz-adv-x="532" d="M98 971q123 59 140 182q-10 -2 -23 -2q-51 0 -82 40t-31 91q0 61 41 104.5t103 43.5q78 0 120 -58.5t42 -138.5q0 -201 -242 -346l-10 -6z" />
<glyph unicode="&#x201a;" horiz-adv-x="546" d="M117 -203q121 59 137 183q-10 -2 -23 -3q-49 0 -80.5 40t-31.5 92q0 61 41 104t102 43q78 0 120 -58.5t42 -138.5q0 -203 -240 -346l-10 -6z" />
<glyph unicode="&#x201c;" horiz-adv-x="933" d="M104 1106q0 199 242 344l10 6l58 -90q-121 -59 -140 -182l23 4q49 0 81 -40t32 -91q0 -61 -41 -105.5t-103 -44.5q-78 0 -123 62q-39 55 -39 137zM508 1106q0 199 242 344l10 6l57 -90q-121 -59 -139 -182q23 4 22 4q49 0 82 -40t33 -91q0 -61 -42 -105.5t-103 -44.5 q-78 0 -123 62q-39 55 -39 137z" />
<glyph unicode="&#x201d;" horiz-adv-x="940" d="M98 971q123 59 140 182q-10 -2 -23 -2q-51 0 -82 40t-31 91q0 61 41 104.5t103 43.5q78 0 120 -58.5t42 -138.5q0 -201 -242 -346l-10 -6zM502 971q123 59 139 182q-10 -2 -23 -2q-51 0 -81.5 40t-30.5 91q0 61 41 104.5t102 43.5q78 0 120 -58.5t42 -138.5 q0 -113 -78 -211q-51 -66 -164 -135l-8 -6z" />
<glyph unicode="&#x201e;" horiz-adv-x="944" d="M117 -203q121 59 137 183q-10 -2 -23 -3q-49 0 -80.5 40t-31.5 92q0 61 41 104t102 43q78 0 120 -58.5t42 -138.5q0 -203 -240 -346l-10 -6zM520 -203q121 59 137 183q-10 -2 -20 -3q-49 0 -82 40t-33 92q0 61 42 104t104 43q78 0 119.5 -58.5t41.5 -138.5 q0 -201 -241 -346l-10 -6z" />
<glyph unicode="&#x2022;" d="M150 725q0 152 105 257t257 105t257 -105t105 -257t-105 -257.5t-257 -105.5t-257 105.5t-105 257.5z" />
<glyph unicode="&#x2026;" horiz-adv-x="1409" d="M94 115q0 57 39 96t96 39q59 0 99.5 -38t40.5 -97q0 -57 -39 -99.5t-97 -42.5q-59 0 -99 41t-40 101zM565 115q0 57 39 96t96 39q59 0 99.5 -38t40.5 -97q0 -57 -39 -99.5t-96 -42.5q-59 0 -99.5 41t-40.5 101zM1036 115q0 57 39 96t96 39q59 0 99.5 -38t40.5 -97 q0 -57 -39 -99.5t-96 -42.5q-59 0 -99.5 41t-40.5 101z" />
<glyph unicode="&#x202f;" horiz-adv-x="378" />
<glyph unicode="&#x2039;" horiz-adv-x="548" d="M162 1628q0 47 32.5 81t79.5 34t83 -33t36 -80t-32.5 -83t-79.5 -36t-82 35t-35 82h-2zM193 0v1405h163v-1405h-163z" />
<glyph unicode="&#x203a;" horiz-adv-x="509" d="M168 0v1016l170 26v-1042h-170z" />
<glyph unicode="&#x205f;" horiz-adv-x="473" />
<glyph unicode="&#x2122;" horiz-adv-x="2027" d="M131 1315v135h668v-135h-267v-709h-135v709h-266zM969 606v844h215l252 -641l252 641h208v-844h-135v709h-4l-278 -709h-93l-278 709h-4v-709h-135z" />
<glyph unicode="&#x25fc;" horiz-adv-x="1013" d="M0 0v1014h1014v-1014h-1014z" />
</font>
</defs>
</svg>
