<?xml version="1.0" encoding="utf-8"?>
<!-- Generator: Adobe Illustrator 18.0.0, SVG Export Plug-In . SVG Version: 6.00 Build 0)  -->
<!DOCTYPE svg PUBLIC "-//W3C//DTD SVG 1.1//EN" "http://www.w3.org/Graphics/SVG/1.1/DTD/svg11.dtd">
<svg version="1.1" xmlns="http://www.w3.org/2000/svg" xmlns:xlink="http://www.w3.org/1999/xlink" x="0px" y="0px"
	 viewBox="0 0 599.9 141" style="enable-background:new 0 0 599.9 141;" xml:space="preserve">
<style type="text/css">
	.st0{fill:#79A0B3;}
	.st1{fill-rule:evenodd;clip-rule:evenodd;fill:#79A0B3;}
</style>
<g id="Guides">
</g>
<g id="logo">
	<g>
		<circle class="st0" cx="119.8" cy="53.9" r="1.1"/>
		<path class="st0" d="M119.8,53.9"/>
	</g>
	<g>
		<path class="st1" d="M22.2,49.9l0.7,0.4l0.5-0.9l3.1,1.7c1.2,0.7,1.5,0.8,2,0.8c0.9,0,1.7-0.6,2.3-1.6c0.5-0.9,0.6-1.8,0.2-2.5
			c-0.2-0.5-0.7-0.9-1.8-1.5L26,44.6l0.5-0.9l-0.7-0.4l-1.4,2.6l0.7,0.4l0.5-0.9l3.2,1.7c1,0.5,1.1,0.6,1.3,0.8
			c0.4,0.5,0.4,1.1,0,1.8c-0.3,0.6-0.8,0.9-1.3,1c-0.4,0-0.4,0-1.6-0.7l-3.1-1.7l0.5-0.9l-0.7-0.4L22.2,49.9z"/>
		<path class="st1" d="M27.3,40.8l0.6,0.5l0.6-0.8l4.6,3.7L32.6,45l0.6,0.5l1.8-2.3l-0.6-0.5l-0.6,0.8l-1.9-1.5
			c-0.3-0.2-1.8-1.4-2.7-2c0.3,0,0.5,0.1,0.8,0.2c1.5,0.3,1.9,0.4,3.3,0.7l3.2,0.5l0.7-0.8L32,36.3l0.6-0.8L31.9,35l-1.8,2.3
			l0.6,0.5l0.6-0.8l1.7,1.4c0.9,0.7,1.8,1.4,2.5,1.9c-1.2-0.3-3-0.6-4.1-0.8L28.8,39L27.3,40.8z"/>
		<polygon class="st1" points="33.8,33.2 34.4,33.8 35,33.2 39.1,37.4 38.4,38.1 39,38.7 41.2,36.6 40.7,36 39.9,36.6 35.9,32.4 
			36.6,31.7 36,31.1 		"/>
		<path class="st1" d="M37.9,29.4l0.5,0.7l0.8-0.6l5.7,4.3l0.9-0.6l-1.9-7l0.8-0.5l-0.5-0.7l-2.3,1.6l0.5,0.7l0.7-0.5l0.8,2.7
			c0.1,0.2,0.3,1.1,0.4,1.5c0.2,0.7,0.4,1.2,0.5,1.5c-0.2-0.1-0.3-0.3-0.5-0.4c-1-0.8-1.3-1.1-1.9-1.6l-2.2-1.7l0.7-0.5l-0.5-0.7
			L37.9,29.4z"/>
		<polygon class="st1" points="52.1,23.2 51.3,21.5 46.4,23.8 46.7,24.6 47.6,24.2 50.1,29.5 49.2,29.9 49.6,30.6 54.6,28.3 
			53.7,26.4 52.9,26.8 53.4,27.9 51.2,29 50,26.5 52.5,25.4 52.1,24.6 49.6,25.8 48.6,23.7 50.8,22.6 51.2,23.6 		"/>
		<path class="st1" d="M54.2,20.3l0.2,0.8l0.9-0.3l1.6,5.7L56,26.8l0.2,0.8l2.9-0.8l-0.2-0.8L58,26.3l-0.7-2.5l1.4-0.4l2.4,2.9
			l1.8-0.5L62.6,25l-0.9,0.3l-2-2.2c1-0.6,1.4-1.3,1.1-2.3c-0.2-0.7-0.7-1.2-1.4-1.4c-0.6-0.1-1-0.1-2.5,0.3L54.2,20.3z M57.1,23
			l-0.7-2.4l0.9-0.3c0.9-0.2,1.2-0.3,1.4-0.2c0.4,0.1,0.8,0.4,0.9,0.9c0.1,0.5,0,0.8-0.2,1.1c-0.2,0.3-0.5,0.4-1.4,0.6L57.1,23z"/>
		<path class="st1" d="M67.5,17.5l0.1,0.5c-0.5-0.4-1.1-0.6-1.8-0.5c-1.3,0.1-2.1,1.1-2,2.2c0.1,0.5,0.3,0.9,0.7,1.2
			c0.4,0.3,0.7,0.4,1.7,0.7c1.1,0.3,1.4,0.4,1.7,0.6c0.2,0.2,0.4,0.4,0.4,0.8c0.1,0.8-0.4,1.3-1.3,1.4c-0.6,0.1-1.2-0.1-1.5-0.5
			c-0.2-0.2-0.4-0.5-0.4-1.1L64,23l0.3,2.5l1-0.1l-0.1-0.7c0.6,0.5,1.2,0.7,2,0.6c1.5-0.2,2.4-1.2,2.2-2.5c-0.1-0.6-0.3-1-0.7-1.3
			c-0.4-0.3-0.7-0.4-2-0.8c-1.3-0.4-1.7-0.5-1.7-1.1c-0.1-0.7,0.4-1.1,1.2-1.2c1-0.1,1.5,0.3,1.7,1.3l0.8-0.1l-0.2-2.2L67.5,17.5z"
			/>
		<polygon class="st1" points="71.3,17.3 71.3,18.1 72.3,18.1 72.2,24 71.3,24 71.3,24.8 74.3,24.8 74.3,24 73.4,24 73.4,18.1 
			74.4,18.1 74.4,17.3 		"/>
		<polygon class="st1" points="76.6,17.3 76.4,19.3 77.3,19.4 77.4,18.3 78.9,18.5 78.1,24.3 77.1,24.2 77,25 80.1,25.4 80.2,24.6 
			79.2,24.5 80,18.6 81.4,18.8 81.3,19.9 82.2,20.1 82.5,18.1 		"/>
		<path class="st1" d="M87.8,19.5l-4.2,5.8L82.7,25l-0.2,0.8l2.7,0.8l0.2-0.7l-0.8-0.2l0.9-1.3l2.5,0.7l0,1.6l-0.8-0.3l-0.2,0.7
			l2.9,0.9l0.2-0.8l-1-0.3l-0.3-7.2L87.8,19.5z M88,24.2l-2-0.6l0.7-1.1c0.7-1,1.1-1.6,1.3-2c0,0.6-0.1,0.9-0.1,2.3L88,24.2z
			 M85.5,18.8l-0.4,1.4l1.3,0.4l0.4-1.4L85.5,18.8z M90,20.2l-0.4,1.4l1.3,0.4l0.4-1.4L90,20.2z"/>
		<polygon class="st1" points="94.2,21.8 93.4,23.5 94.2,23.9 94.7,22.9 96,23.6 93.4,28.9 92.5,28.4 92.1,29.1 94.9,30.5 
			95.3,29.8 94.4,29.4 97,24.1 98.3,24.7 97.8,25.7 98.7,26.2 99.5,24.4 		"/>
		<path class="st1" d="M104.2,27.3l-0.5,0.6l0.8,0.6l-2.3,2.7c-0.9,1.1-1,1.3-1.1,1.8c-0.1,0.9,0.3,1.8,1.1,2.5
			c0.8,0.6,1.6,0.9,2.4,0.7c0.6-0.1,1-0.5,1.8-1.5l2.3-2.8l0.8,0.6L110,32l-2.3-1.9l-0.5,0.6l0.8,0.6l-2.3,2.8
			c-0.7,0.9-0.8,1-1.1,1.1c-0.5,0.3-1.2,0.1-1.8-0.3c-0.5-0.4-0.8-0.9-0.7-1.5c0.1-0.4,0.1-0.4,1-1.5l2.3-2.8l0.8,0.6l0.5-0.6
			L104.2,27.3z"/>
		<polygon class="st1" points="108.3,40.1 112.8,36.3 113.4,37 114.1,36.5 112,34.1 111.4,34.7 112,35.4 107.6,39.2 106.9,38.5 
			106.3,39 109.9,43.3 111.5,42 110.9,41.2 110,42 		"/>
		<path class="st1" d="M117.4,40.6l-0.7,0.4l0.5,0.9l-5.1,3l-0.5-0.8l-0.7,0.4l1.5,2.5l0.7-0.4l-0.5-0.9l2.4-1.4
			c1.7-1,1.9-1.1,2.7-1.7c-0.7,0.8-1.6,1.6-2.4,2.6l-2.1,2.3l0.5,0.9l3-0.6c1.2-0.2,1.9-0.4,3.5-0.8l-1,0.5l-0.6,0.3l-0.6,0.3
			c-0.3,0.2-0.5,0.3-0.6,0.3l-2.4,1.4l-0.5-0.9l-0.7,0.4l1.6,2.7l0.7-0.4l-0.5-0.8l5.1-3l0.5,0.8l0.7-0.4l-1.3-2.3l-2.9,0.7
			c-1.6,0.4-1.9,0.4-3.3,0.8c1.1-1.1,1.5-1.5,2.4-2.4l2.1-2.2L117.4,40.6z"/>
		<path class="st1" d="M125.8,59.8l-0.5,0.1c0.3-0.6,0.4-1.1,0.2-1.9c-0.3-1.3-1.4-2-2.5-1.7c-0.5,0.1-0.9,0.4-1.1,0.8
			c-0.2,0.4-0.3,0.8-0.4,1.8c-0.1,1.2-0.2,1.4-0.3,1.7c-0.1,0.2-0.4,0.4-0.7,0.5c-0.8,0.2-1.4-0.2-1.6-1.1c-0.2-0.6-0.1-1.2,0.3-1.6
			c0.2-0.3,0.5-0.4,1-0.6l-0.2-0.9l-2.4,0.6l0.2,0.9l0.6-0.2c-0.4,0.7-0.5,1.3-0.3,2.1c0.4,1.4,1.5,2.2,2.8,1.8
			c0.5-0.1,1-0.5,1.2-0.9c0.2-0.4,0.3-0.8,0.5-2.1c0.2-1.4,0.3-1.7,0.9-1.9c0.6-0.2,1.2,0.2,1.4,1c0.2,0.9-0.1,1.5-1,1.8l0.2,0.8
			l2.1-0.5L125.8,59.8z"/>
		<path class="st1" d="M127.2,68.8l-0.6,0.1c0.4-0.6,0.6-1.2,0.5-1.9c-0.2-1.9-1.9-3-4.3-2.7c-2.4,0.3-3.7,1.7-3.5,3.7
			c0.1,1,0.5,1.6,1.2,2c0.5,0.3,1,0.4,1.9,0.3l-0.1-1c-1.3,0.1-2-0.4-2.2-1.4c-0.1-1.3,0.9-2.2,2.8-2.4c2-0.2,3.2,0.4,3.3,1.7
			c0.1,1-0.4,1.6-1.4,1.8L125,70l2.3-0.3L127.2,68.8z"/>
		<polygon class="st1" points="127.2,73 126.4,73 126.4,73.9 120.5,73.7 120.5,72.7 119.7,72.7 119.5,75.8 120.4,75.8 120.4,74.8 
			126.3,75.1 126.3,76 127.1,76.1 		"/>
		<polygon class="st1" points="124.1,84 125.9,84.3 126.8,78.9 126,78.8 125.9,79.7 120.1,78.7 120.2,77.8 119.4,77.6 118.5,83.1 
			120.5,83.4 120.7,82.5 119.5,82.3 119.9,79.9 122.5,80.3 122.1,83 122.9,83.2 123.4,80.5 125.7,80.9 125.3,83.2 124.3,83 		"/>
		<path class="st1" d="M125.2,87.3l-0.8-0.3l-0.3,0.9l-5.6-2l0.3-0.9l-0.8-0.3l-1,2.8l0.7,0.3l0.3-0.9l2.3,0.8
			c0.3,0.1,2.2,0.7,3.2,1.1c-0.3,0-0.5,0.1-0.8,0.1c-1.5,0.2-2,0.2-3.3,0.5l-3.2,0.5l-0.4,1l6.3,2.2l-0.3,0.9l0.8,0.3l1-2.8
			l-0.7-0.3l-0.3,1l-2.1-0.7c-1.1-0.4-2.1-0.7-3-1c1.3-0.1,3.1-0.4,4.1-0.6l2.7-0.5L125.2,87.3z"/>
		<path class="st1" d="M121.2,97.3l-0.7-0.4l-0.5,0.8l-5-3.1l0.5-0.8l-0.7-0.4l-1.2,2c-0.7,1.2-1,1.8-1,2.6c0,1.3,0.7,2.4,1.9,3.2
			c1.1,0.7,2.3,0.8,3.3,0.4c0.8-0.3,1.3-0.8,2.1-2.2L121.2,97.3z M114.4,95.7l5,3.1l-0.3,0.5c-0.5,0.8-0.8,1.1-1.3,1.3
			c-0.8,0.3-1.7,0.2-2.7-0.4c-0.9-0.5-1.4-1.3-1.6-2c-0.1-0.6,0-1.2,0.6-2.1L114.4,95.7z"/>
		<path class="st1" d="M113.7,108.4c1.3-1.5,1.1-3.6-0.7-5.1c-1.8-1.6-3.9-1.7-5.2-0.1c-1.3,1.5-1.1,3.6,0.7,5.1
			C110.3,109.9,112.3,110,113.7,108.4z M113,107.9c-0.9,1-2.3,0.9-3.7-0.4c-1.5-1.3-1.8-2.6-0.9-3.6c0.9-1,2.3-0.9,3.8,0.5
			C113.6,105.5,113.9,106.9,113,107.9z"/>
		<path class="st1" d="M106.1,115.5l-0.5-0.7l-0.8,0.6l-3.3-4.9l0.8-0.6l-0.5-0.7l-1.9,1.3c-1.2,0.8-1.6,1.2-1.9,2
			c-0.5,1.2-0.4,2.5,0.5,3.7c0.7,1.1,1.8,1.7,2.9,1.7c0.9,0,1.5-0.2,2.8-1.1L106.1,115.5z M100.6,111.2l3.3,4.8l-0.5,0.3
			c-0.8,0.6-1.2,0.7-1.7,0.7c-0.8,0-1.7-0.5-2.3-1.4c-0.6-0.9-0.8-1.7-0.6-2.5c0.2-0.6,0.5-1.1,1.4-1.7L100.6,111.2z"/>
		<path class="st1" d="M94.5,122.5c1.8-0.8,2.5-2.8,1.5-4.9c-1-2.2-2.8-3.1-4.7-2.3c-1.9,0.8-2.5,2.8-1.5,4.9
			C90.8,122.4,92.7,123.3,94.5,122.5z M94.2,121.7c-1.2,0.5-2.4-0.2-3.2-2c-0.8-1.8-0.5-3.1,0.7-3.7c1.3-0.5,2.4,0.2,3.2,2
			C95.7,119.9,95.4,121.2,94.2,121.7z"/>
		<path class="st1" d="M83.6,125.9l-0.1-0.6c0.6,0.4,1.2,0.4,1.9,0.3c1.9-0.5,2.7-2.3,2.1-4.6c-0.6-2.3-2.2-3.5-4.1-3
			c-0.9,0.2-1.6,0.7-1.8,1.5c-0.2,0.6-0.2,1.1,0,1.9l0.9-0.2c-0.2-1.3,0.1-2.1,1.1-2.3c1.2-0.3,2.3,0.6,2.7,2.4
			c0.5,1.9,0.1,3.2-1.2,3.5c-1,0.3-1.6-0.1-2-1.2l-0.9,0.2l0.6,2.3L83.6,125.9z"/>
		<polygon class="st1" points="74,125.2 74.1,127.1 79.6,126.6 79.5,125.8 78.5,125.9 78.1,120 79,119.9 79,119.1 73.5,119.5 
			73.6,121.6 74.6,121.5 74.5,120.3 76.9,120.1 77.1,122.8 74.4,123 74.5,123.8 77.2,123.6 77.4,126 75,126.2 74.9,125.1 		"/>
		<path class="st1" d="M70.8,127.1l0.1-0.8l-1-0.1l0.6-5.9l1,0.1l0.1-0.8l-2.9-0.3l-0.1,0.8l1,0.1l-0.2,2.4c0,0.3-0.2,2.3-0.3,3.4
			c-0.1-0.3-0.2-0.5-0.3-0.8c-0.5-1.4-0.7-1.9-1.2-3.1l-1.3-3l-1.1-0.1l-0.6,6.7l-1-0.1l-0.1,0.8l2.9,0.3l0.1-0.8l-1-0.1l0.2-2.2
			c0.1-1.2,0.2-2.2,0.2-3.1c0.5,1.2,1.1,2.9,1.5,3.9l1.1,2.5L70.8,127.1z"/>
		<path class="st1" d="M60.2,125.8l0.2-0.8l-0.9-0.3l1.7-5.7l0.9,0.3l0.2-0.8l-2.3-0.7c-1.4-0.4-2-0.5-2.7-0.3
			c-1.2,0.3-2.2,1.3-2.6,2.7c-0.4,1.3-0.2,2.4,0.5,3.3c0.5,0.7,1.1,1,2.6,1.5L60.2,125.8z M60,118.7l-1.7,5.6l-0.5-0.2
			c-0.9-0.3-1.3-0.5-1.6-0.9c-0.5-0.7-0.6-1.6-0.3-2.7c0.3-1,0.8-1.7,1.5-2.1c0.6-0.3,1.1-0.3,2.1,0L60,118.7z"/>
		<path class="st1" d="M47.6,121.2c1.8,0.9,3.7,0.1,4.7-2c1.1-2.2,0.6-4.2-1.2-5.1c-1.8-0.9-3.7-0.1-4.8,2
			C45.3,118.3,45.8,120.3,47.6,121.2z M48,120.5c-1.2-0.6-1.4-2-0.5-3.7c0.9-1.7,2.1-2.4,3.3-1.8c1.2,0.6,1.4,2,0.5,3.8
			C50.4,120.4,49.2,121.1,48,120.5z"/>
		<path class="st1" d="M34.9,112.2l0.4-0.4c0,0.7,0.3,1.3,0.9,1.7c1.4,1.3,3.4,0.9,5-0.9c1.6-1.8,1.7-3.7,0.1-5.1
			c-0.7-0.6-1.5-0.9-2.3-0.7c-0.6,0.1-1,0.4-1.6,1.1l0.7,0.6c0.9-0.9,1.8-1.1,2.6-0.4c1,0.8,0.8,2.2-0.5,3.6
			c-1.3,1.5-2.6,1.8-3.6,0.9c-0.8-0.7-0.8-1.4-0.1-2.3l-0.7-0.6l-1.6,1.8L34.9,112.2z"/>
		<path class="st1" d="M32.1,109.6l0.6-0.5l-0.6-0.8l2.7-2.3c1.1-0.9,1.3-1.1,1.4-1.5c0.3-0.8,0.1-1.8-0.6-2.7
			c-0.6-0.8-1.4-1.2-2.2-1.1c-0.6,0-1.1,0.3-2.1,1.1l-2.8,2.3l-0.6-0.8l-0.6,0.5l1.9,2.3l0.6-0.5l-0.6-0.8l2.8-2.3
			c0.9-0.7,1-0.8,1.3-0.9c0.6-0.2,1.2,0.1,1.7,0.7c0.4,0.5,0.6,1.1,0.4,1.6c-0.1,0.3-0.1,0.3-1.2,1.3l-2.8,2.3l-0.6-0.8l-0.6,0.5
			L32.1,109.6z"/>
		<path class="st1" d="M25.7,101.1l0.7-0.4L26,99.9l5.2-2.8l0.5,0.9l0.7-0.4l-1.4-2.6l-0.7,0.4l0.4,0.8l-2.3,1.2L27.7,96l2.3-3
			l-0.9-1.6l-0.7,0.4l0.5,0.8l-1.7,2.5c-0.8-0.9-1.6-1-2.5-0.5c-0.7,0.4-1,1-1,1.7c0,0.6,0.2,1,0.9,2.4L25.7,101.1z M27.6,97.7
			l-2.2,1.2L25,98.1c-0.4-0.8-0.5-1.1-0.6-1.3c0-0.4,0.2-0.8,0.6-1.1c0.4-0.2,0.8-0.2,1.2,0c0.3,0.2,0.5,0.4,0.9,1.2L27.6,97.7z"/>
		<path class="st1" d="M20.4,89.8l7.2,0.1l0.3,0.9l0.8-0.3l-0.9-2.6l-0.7,0.2l0.3,0.8l-1.6,0l-0.8-2.4l1.3-0.9l0.3,0.8l0.7-0.2
			l-1-2.9l-0.8,0.3l0.3,1l-5.7,4.3L20.4,89.8z M24.3,86.9l0.7,2l-1.3,0c-1.2,0-2,0.1-2.4,0.1c0.5-0.3,0.8-0.5,1.9-1.3L24.3,86.9z"/>
		<path class="st1" d="M18.5,82.7l0.8-0.1l-0.1-1l5.8-0.8l0.1,1l0.8-0.1l-0.4-2.9L24.9,79l0.1,1l-2.4,0.3c-0.3,0-2.3,0.3-3.3,0.5
			c0.2-0.2,0.4-0.3,0.7-0.5c1.3-0.9,1.6-1.1,2.8-1.9l2.6-1.9l-0.1-1.1l-6.7,0.9l-0.1-1l-0.8,0.1l0.4,2.9l0.8-0.1l-0.1-1l2.2-0.3
			c1.2-0.2,2.2-0.3,3.1-0.5c-1.1,0.7-2.6,1.8-3.4,2.4l-2.2,1.6L18.5,82.7z"/>
		<path class="st1" d="M17.5,72.2l0.8,0.1l0.1-1l5.9,0.4l-0.1,1l0.8,0.1l0.1-2.4c0.1-1.4,0-2-0.4-2.7c-0.6-1.1-1.7-1.8-3.2-1.9
			c-1.3-0.1-2.4,0.3-3.1,1.2c-0.6,0.7-0.8,1.3-0.8,2.9L17.5,72.2z M24.3,70.5l-5.9-0.4l0-0.6c0.1-1,0.2-1.4,0.5-1.8
			c0.5-0.7,1.4-1,2.5-0.9c1,0.1,1.9,0.4,2.3,1c0.4,0.5,0.5,1,0.5,2.1L24.3,70.5z"/>
		<path class="st1" d="M19,59.2c-0.5,1.9,0.7,3.6,3,4.2c2.4,0.6,4.2-0.4,4.7-2.3c0.5-2-0.7-3.6-3-4.2C21.3,56.3,19.5,57.2,19,59.2z
			 M19.8,59.4c0.3-1.3,1.6-1.8,3.5-1.4c1.9,0.5,2.8,1.5,2.5,2.8c-0.3,1.3-1.6,1.8-3.5,1.4C20.4,61.7,19.5,60.7,19.8,59.4z"/>
	</g>
	<g>
		<circle class="st0" cx="24.7" cy="53.9" r="1.1"/>
		<path class="st0" d="M24.7,53.9"/>
	</g>
	<g>
		<circle class="st0" cx="44.1" cy="114.5" r="1.1"/>
		<path class="st0" d="M44.1,114.5"/>
	</g>
	<g>
		<circle class="st0" cx="105.4" cy="110.7" r="1.1"/>
		<path class="st0" d="M105.4,110.7"/>
	</g>
	<g>
		<g>
			<path class="st0" d="M57.6,86.4c-0.3-2.5-0.5-5.1-0.6-7.8c-1.8-2-3.5-4-5.1-6c-2.9,3.8-5.2,7.4-6.9,10.9
				C48.7,84.8,52.9,85.8,57.6,86.4z M65.5,57.2c-2.5,0.1-4.9,0.4-7.2,0.7c-0.3,2.3-0.5,4.7-0.7,7.2c1.2-1.3,2.5-2.7,3.8-4
				C62.8,59.7,64.1,58.4,65.5,57.2z M51.9,71.6c1.6-2,3.2-4,5-6c0.1-2.7,0.3-5.3,0.6-7.8c-4.7,0.6-8.9,1.6-12.5,2.8
				C46.8,64.2,49.1,67.9,51.9,71.6z M52.3,72.1c1.4,1.8,3,3.7,4.6,5.6c-0.1-1.8-0.1-3.7-0.1-5.6c0-1.9,0-3.8,0.1-5.6
				C55.3,68.4,53.8,70.3,52.3,72.1z M87.6,65c-0.1-2.5-0.4-4.9-0.7-7.2c-2.3-0.3-4.7-0.5-7.2-0.7c1.3,1.2,2.7,2.5,4,3.9
				C85.1,62.4,86.4,63.7,87.6,65z M78.1,56.5c-1.9-1.7-3.7-3.2-5.6-4.6c-1.8,1.4-3.7,3-5.6,4.6c1.8-0.1,3.7-0.1,5.6-0.1
				C74.5,56.4,76.3,56.4,78.1,56.5z M100.5,59.9c3.2-6.9,3.7-12.7,0.3-16c-1.6-1.6-3.9-2.4-6.5-2.3c0,0.5-0.2,0.9-0.6,1.3
				c-0.8,0.8-2.2,0.8-3,0c-0.2-0.2-0.4-0.4-0.5-0.7c-1.7,0.4-3.6,1.1-5.5,2c1.2,3.8,2.1,8.2,2.7,13C92.3,57.9,96.7,58.8,100.5,59.9z
				 M65.4,87.2c-1.3-1.2-2.7-2.5-4-3.8c-1.3-1.3-2.6-2.7-3.8-4c0.1,2.5,0.4,4.9,0.7,7.2C60.6,86.8,63,87,65.4,87.2z M67.3,76.5
				c0,1.3,2.1,2.6,4.6,2.8v-5.6C69.4,73.9,67.3,75.2,67.3,76.5z M87.6,79.3c-1.2,1.3-2.5,2.7-3.9,4c-1.3,1.3-2.7,2.6-4,3.8
				c2.5-0.1,4.9-0.4,7.2-0.7C87.2,84.2,87.4,81.8,87.6,79.3z M66.7,69.9c0,1.4,2.4,2.9,5.2,3.1v-6.2C69.1,67.1,66.7,68.5,66.7,69.9z
				 M72.6,92.4c1.8-1.4,3.7-3,5.6-4.6c-1.8,0.1-3.7,0.1-5.5,0.1c-1.9,0-3.7,0-5.5-0.1C68.9,89.5,70.7,91,72.6,92.4z M83.3,82.9
				c1.5-1.5,3-3,4.3-4.5c0.1-2,0.2-4.1,0.2-6.2c0-2.1-0.1-4.2-0.2-6.2c-1.4-1.5-2.8-3-4.3-4.5c-1.5-1.5-3-2.9-4.5-4.3
				c-2-0.1-4.1-0.2-6.2-0.2c-2.1,0-4.2,0.1-6.2,0.2c-1.5,1.4-3,2.8-4.5,4.3c-1.5,1.5-2.9,3-4.3,4.5c-0.1,2-0.2,4.1-0.2,6.3
				c0,2.1,0.1,4.2,0.2,6.2c1.4,1.5,2.8,3,4.3,4.5c1.5,1.5,3,2.9,4.5,4.3c2,0.1,4.1,0.2,6.2,0.2c2.1,0,4.2-0.1,6.2-0.2
				C80.3,85.8,81.8,84.4,83.3,82.9z M73.8,85.3c0,0-0.1-0.1-0.1-0.3c0-0.1,0.1-0.3,0.1-0.3c2-0.3,3.6-1.4,3.6-2.4
				c0-1.1-1.9-2.3-4.1-2.5v6.5c0,0.4-0.3,0.6-0.7,0.6c-0.4,0-0.7-0.3-0.7-0.6v-6.5c-2.2,0.2-4.1,1.4-4.1,2.5c0,1,1.6,2.1,3.6,2.4
				c0,0,0.1,0.1,0.1,0.3c0,0.2-0.1,0.3-0.1,0.3c-2.7-0.3-4.8-1.5-4.8-3c0-1.2,1.5-2.3,3.6-2.8c-2.5-0.5-4.3-1.7-4.3-3.1
				c0-1.4,1.6-2.6,4-3.1c-2.8-0.5-4.8-1.9-4.8-3.5c0-1.5,1.8-2.8,4.4-3.4c-3.1-0.6-5.3-2.1-5.3-3.9c0-1.5,1.5-2.7,3.8-3.5
				c0.2-0.3,0.7-0.6,1.4-0.8c0.9-0.2,1.7,0.1,1.8,0.5c0.1,0.4-0.6,0.9-1.5,1.1c-0.4,0.1-0.9,0.1-1.2,0c-1.5,0.7-2.6,1.7-2.6,2.7
				c0,1.6,2.7,3.2,5.8,3.5v-8.4c0-0.4,0.3-0.6,0.7-0.6c0.4,0,0.7,0.3,0.7,0.6v8.4c3.1-0.2,5.9-1.9,5.9-3.5c0-1-1-2-2.6-2.7
				c-0.3,0.1-0.7,0.1-1.2,0c-0.9-0.2-1.6-0.6-1.5-1.1c0.1-0.4,0.9-0.7,1.8-0.5c0.7,0.1,1.2,0.4,1.4,0.8c2.3,0.7,3.8,2,3.8,3.5
				c0,1.8-2.2,3.3-5.3,3.9c2.6,0.6,4.4,1.9,4.4,3.4c0,1.6-2,2.9-4.8,3.5c2.4,0.5,4,1.7,4,3.1c0,1.4-1.8,2.6-4.3,3.1
				c2.1,0.5,3.6,1.5,3.6,2.8C78.6,83.8,76.5,85,73.8,85.3z M77.9,76.5c0-1.3-2.1-2.6-4.6-2.8v5.6C75.7,79.1,77.9,77.7,77.9,76.5z
				 M78.5,69.9c0-1.4-2.4-2.9-5.2-3.1V73C76.1,72.8,78.5,71.3,78.5,69.9z M79.1,87.8c-2,1.8-4,3.5-5.9,5c3.8,2.9,7.5,5.2,10.9,6.9
				c1.2-3.6,2.2-7.9,2.8-12.6C84.3,87.4,81.7,87.6,79.1,87.8z M66.1,87.8c-2.7-0.1-5.3-0.3-7.8-0.6c0.6,4.7,1.6,8.9,2.8,12.5
				c3.4-1.7,7.1-4,10.9-6.9C70.1,91.3,68.1,89.6,66.1,87.8z M44.7,84.4c-3.2,6.9-3.7,12.7-0.3,16c1.6,1.6,3.7,2.3,6.2,2.3
				c0.1-0.2,0.3-0.5,0.4-0.7c0.8-0.8,2.1-0.8,3,0c0.1,0.1,0.1,0.1,0.2,0.2c1.9-0.4,4-1.2,6.2-2.2c-1.2-3.8-2.1-8.2-2.7-13
				C52.9,86.5,48.5,85.6,44.7,84.4z M61.5,100.5c2.6,7.2,6.4,11.6,11.1,11.6c2.2,0,4.2-0.9,5.9-2.7c-0.2-0.3-0.3-0.7-0.3-1.1
				c0-1.2,0.9-2.1,2.1-2.1c0.2,0,0.4,0,0.6,0.1c1-1.6,2-3.6,2.8-5.8c-3.5-1.8-7.3-4.3-11.1-7.3C68.8,96.2,65,98.7,61.5,100.5z
				 M51.5,72.2c-3-3.8-5.5-7.6-7.3-11.1c-7.1,2.6-11.6,6.4-11.6,11.1c0,2.3,1.1,4.4,3,6.2c0.2-0.1,0.5-0.2,0.8-0.2
				c1.2,0,2.1,0.9,2.1,2.1l0,0.2c1.6,1,3.5,1.9,5.7,2.7C46.1,79.7,48.6,76,51.5,72.2z M87.5,87.1c-0.6,4.8-1.5,9.2-2.7,13
				c6.9,3.2,12.7,3.7,16,0.3c1.5-1.5,2.3-3.6,2.3-6c-0.5-0.1-0.9-0.3-1.3-0.6c-0.8-0.8-0.8-2.2,0-3c0.2-0.2,0.5-0.4,0.8-0.5
				c-0.4-1.9-1.2-3.9-2.1-6C96.7,85.6,92.3,86.5,87.5,87.1z M93.2,72.7c-1.5,2-3.2,3.9-5,5.9c-0.1,2.7-0.3,5.3-0.6,7.8
				c4.7-0.6,8.9-1.6,12.5-2.8C98.4,80.1,96.1,76.4,93.2,72.7z M109.8,66.2c-0.4,0.3-0.8,0.5-1.3,0.5c-1.2,0-2.1-0.9-2.1-2.1
				c0-0.3,0.1-0.6,0.2-0.9c-1.6-1-3.5-1.8-5.6-2.6c-1.8,3.5-4.3,7.3-7.3,11.1c3,3.8,5.5,7.6,7.3,11.1c7.1-2.6,11.6-6.4,11.6-11.1
				C112.5,70,111.5,68,109.8,66.2z M72.6,27.9c-24.4,0-44.2,19.8-44.2,44.3c0,24.4,19.8,44.3,44.2,44.3s44.2-19.8,44.2-44.3
				C116.8,47.7,97,27.9,72.6,27.9z M103.9,90.3c0.4,0.1,0.7,0.3,1,0.5c0.8,0.8,0.8,2.2,0,3c-0.1,0.1-0.1,0.1-0.2,0.2
				c0.3,3.3-0.4,6-2.3,7.9c-3.7,3.7-10.1,2.9-17.8-0.9c-0.8,2.3-1.6,4.3-2.6,6.1c0.3,0.4,0.5,0.8,0.5,1.3c0,1.2-0.9,2.1-2.1,2.1
				c-0.2,0-0.4,0-0.6-0.1c-2,2.5-4.4,3.8-7.1,3.8c-5.2,0-9.2-5.1-11.9-13.3c-2.1,1.1-4.2,1.9-6.1,2.5c0,0.6-0.2,1.1-0.6,1.6
				c-0.8,0.8-2.2,0.8-3,0c-0.2-0.2-0.4-0.5-0.5-0.8c-3.1,0.3-5.7-0.5-7.6-2.3c-3.7-3.7-2.9-10.1,0.9-17.8c-2.1-0.7-4.1-1.5-5.8-2.4
				c-0.4,0.5-1,0.7-1.6,0.7c-1.2,0-2.1-0.9-2.1-2.1c0-0.3,0.1-0.6,0.2-0.9c-2.6-2.1-4-4.5-4-7.2c0-5.2,5.1-9.2,13.2-11.9
				c-1-2-1.8-3.8-2.3-5.6c-0.6,0-1.2-0.2-1.7-0.6c-0.8-0.8-0.8-2.2,0-3c0.2-0.2,0.5-0.4,0.8-0.5c-0.4-3.4,0.3-6.1,2.3-8.1
				c3.7-3.7,10.1-2.9,17.8,0.9c0.7-2.1,1.5-4,2.3-5.6c-0.3-0.4-0.5-0.9-0.5-1.4c0-1.2,0.9-2.1,2.1-2.1c0.2,0,0.4,0,0.6,0.1
				c2.1-2.7,4.6-4.2,7.4-4.2c5.2,0,9.2,5.1,11.9,13.2c2-1,3.9-1.8,5.6-2.3c0.1-0.4,0.3-0.8,0.6-1.1c0.8-0.8,2.2-0.8,3,0
				c0.1,0.1,0.1,0.1,0.2,0.2c3.5-0.5,6.4,0.2,8.4,2.2c3.7,3.7,2.9,10.1-0.9,17.8c2.2,0.7,4.2,1.6,6,2.5c0.3-0.2,0.7-0.3,1.1-0.3
				c1.2,0,2.1,0.9,2.1,2.1c0,0.1,0,0.2,0,0.3c2.6,2.1,4.1,4.6,4.1,7.3c0,5.2-5.1,9.2-13.2,11.9C102.5,86.3,103.3,88.3,103.9,90.3z
				 M79,56.5c2.7,0.1,5.3,0.3,7.8,0.6c-0.6-4.7-1.6-9-2.8-12.6c-3.4,1.7-7.1,4-10.9,6.9C75.1,53.1,77.1,54.7,79,56.5z M57.7,57.3
				c0.6-4.8,1.5-9.2,2.7-13c-6.9-3.2-12.7-3.7-16-0.3c-1.7,1.7-2.4,3.9-2.3,6.7c0.3,0.1,0.5,0.3,0.7,0.5c0.8,0.8,0.8,2.2,0,3
				l-0.2,0.2c0.4,1.8,1.1,3.7,2.1,5.8C48.5,58.8,52.9,57.9,57.7,57.3z M92.8,72.2c-1.4-1.8-2.9-3.7-4.6-5.5c0.1,1.8,0.1,3.7,0.1,5.6
				c0,1.9,0,3.7-0.1,5.5C89.9,75.8,91.4,74,92.8,72.2z M87.6,57.9c0.3,2.5,0.5,5.1,0.6,7.8c1.8,2,3.5,4,5,5.9
				c2.9-3.8,5.2-7.5,6.9-10.9C96.5,59.5,92.2,58.6,87.6,57.9z M83.7,43.8c-2.6-7.1-6.4-11.6-11.1-11.6c-2.3,0-4.4,1.1-6.3,3
				c0.2,0.3,0.3,0.7,0.3,1.1c0,1.2-0.9,2.1-2.1,2.1c-0.2,0-0.4,0-0.5-0.1c-0.9,1.6-1.8,3.4-2.5,5.4c3.5,1.8,7.2,4.3,11.1,7.3
				C76.4,48.1,80.2,45.6,83.7,43.8z M66.1,56.5c2-1.8,4-3.5,5.9-5c-3.8-2.9-7.4-5.2-10.9-6.9c-1.2,3.6-2.2,7.9-2.8,12.6
				C60.9,56.9,63.4,56.7,66.1,56.5z"/>
		</g>
	</g>
	<g>
		<path class="st1" d="M359.3,31.5h-1.7v7.8c0,2.3-1,5.1-4.2,5.1c-2.4,0-3.3-1.7-3.3-4.3v-8.5h-1.7v9c0,3.1,1.3,5.4,4.8,5.4
			c2.9,0,4-1.6,4.5-2.8h0.1v2.5h1.7c-0.1-1.1-0.1-2.2-0.1-3.3V31.5z"/>
		<path class="st1" d="M364.5,45.5h1.7v-7.8c0-2.3,1-5.1,4.2-5.1c2.4,0,3.3,1.7,3.3,4.3v8.5h1.7v-9c0-3.1-1.3-5.4-4.8-5.4
			c-2.9,0-4,1.6-4.5,2.8H366v-2.5h-1.7c0.1,1.1,0.1,2.2,0.1,3.3V45.5z"/>
		<path class="st1" d="M379.8,45.5h1.7v-14h-1.7V45.5z M381.5,25.4h-1.7v2.3h1.7V25.4z"/>
		<polygon class="st1" points="395.7,31.5 393.8,31.5 389.8,43.6 389.7,43.6 385.8,31.5 383.9,31.5 388.7,45.5 390.7,45.5 		"/>
		<path class="st1" d="M407.5,43.3c-0.8,0.5-2.7,1-3.9,1c-3,0-4.6-2.4-4.6-5.4h9.6v-0.9c0-3.8-1.6-7-5.6-7c-3.5,0-5.9,3.1-5.9,7.3
			c0,4.2,1.7,7.3,6.4,7.3c1.3,0,2.9-0.3,4.1-0.8V43.3z M398.9,37.5c0-2.3,1.6-4.9,4.1-4.9c2.6,0,3.6,2.4,3.6,4.9H398.9z"/>
		<path class="st1" d="M411.8,45.5h1.7v-6.9c0-2.5,0.7-5.6,3.5-5.6c0.4,0,0.9,0.1,1.3,0.2v-1.8c-0.3-0.1-0.8-0.2-1.2-0.2
			c-1.8,0-3,1.5-3.6,3h-0.1v-2.7h-1.7c0.1,1,0.1,1.6,0.1,3.1V45.5z"/>
		<path class="st1" d="M419.7,45.2c1.2,0.5,2.6,0.7,3.9,0.7c2.1,0,4.9-1,4.9-4c0-4.6-6.9-4.3-6.9-6.9c0-1.8,1.2-2.3,3-2.3
			c1,0,2.2,0.2,3.1,0.7l0.2-1.5c-1.2-0.5-2.7-0.6-3.5-0.6c-2.3,0-4.6,1-4.6,3.8c0,4.1,6.7,3.5,6.7,6.9c0,1.6-1.5,2.5-3.1,2.5
			c-1.3,0-2.6-0.4-3.7-0.9L419.7,45.2z"/>
		<path class="st1" d="M431.7,45.5h1.7v-14h-1.7V45.5z M433.4,25.4h-1.7v2.3h1.7V25.4z"/>
		<path class="st1" d="M443.8,31.5h-3.2v-4l-1.7,0.6v3.4h-2.8V33h2.8v8.2c0,2.6,0.1,4.7,3.2,4.7c0.9,0,1.7-0.2,2.1-0.4l-0.1-1.4
			c-0.5,0.2-0.9,0.3-1.6,0.3c-1.4,0-1.9-1-1.9-2.3V33h3.2V31.5z"/>
		<path class="st1" d="M452.9,29.1h2.1v-2.3h-2.1V29.1z M448.2,29.1h2.1v-2.3h-2.1V29.1z M455,45.5h1.7c-0.1-1-0.1-1.8-0.1-2.9v-6.2
			c0-3.7-1.5-5.2-4.9-5.2c-1.2,0-3.1,0.4-4.1,1v1.7c1.3-0.8,2.7-1.2,4.1-1.2c2.3,0,3.2,1.2,3.2,3.6v0.7h-0.3c-3.6,0-8.6,0.2-8.6,4.9
			c0,1.3,0.6,4,4.6,4c1.7,0,3.7-0.9,4.5-2.6h0.1V45.5z M454.8,39.3c0,1.5-0.1,5.1-4.2,5.1c-1.6,0-2.9-0.7-2.9-2.5
			c0-3.1,3.6-3.4,6.6-3.4h0.5V39.3z"/>
		<path class="st1" d="M466.7,31.5h-3.2v-4l-1.7,0.6v3.4H459V33h2.8v8.2c0,2.6,0.1,4.7,3.2,4.7c0.9,0,1.7-0.2,2.1-0.4L467,44
			c-0.5,0.2-0.9,0.3-1.6,0.3c-1.4,0-1.9-1-1.9-2.3V33h3.2V31.5z"/>
	</g>
	<g>
		<path class="st1" d="M227.1,31.5h-1.7v7.8c0,2.3-1,5.1-4.2,5.1c-2.4,0-3.3-1.7-3.3-4.3v-8.5h-1.7v9c0,3.1,1.3,5.4,4.8,5.4
			c2.9,0,4-1.6,4.5-2.8h0.1v2.5h1.7c-0.1-1.1-0.1-2.2-0.1-3.3V31.5z"/>
		<path class="st1" d="M232.3,45.5h1.7v-7.8c0-2.3,1-5.1,4.2-5.1c2.4,0,3.3,1.7,3.3,4.3v8.5h1.7v-9c0-3.1-1.3-5.4-4.8-5.4
			c-2.9,0-4,1.6-4.5,2.8h-0.1v-2.5h-1.7c0.1,1.1,0.1,2.2,0.1,3.3V45.5z"/>
		<path class="st1" d="M247.6,45.5h1.7v-14h-1.7V45.5z M249.3,25.4h-1.7v2.3h1.7V25.4z"/>
		<polygon class="st1" points="263.5,31.5 261.7,31.5 257.6,43.6 257.5,43.6 253.6,31.5 251.8,31.5 256.5,45.5 258.5,45.5 		"/>
		<path class="st1" d="M275.3,43.3c-0.8,0.5-2.7,1-3.9,1c-3,0-4.6-2.4-4.6-5.4h9.6v-0.9c0-3.8-1.6-7-5.6-7c-3.5,0-5.9,3.1-5.9,7.3
			c0,4.2,1.7,7.3,6.4,7.3c1.3,0,2.9-0.3,4.1-0.8V43.3z M266.7,37.5c0-2.3,1.6-4.9,4.1-4.9c2.6,0,3.6,2.4,3.6,4.9H266.7z"/>
		<path class="st1" d="M279.6,45.5h1.7v-6.9c0-2.5,0.7-5.6,3.5-5.6c0.4,0,0.9,0.1,1.3,0.2v-1.8c-0.3-0.1-0.8-0.2-1.2-0.2
			c-1.8,0-3,1.5-3.6,3h-0.1v-2.7h-1.7c0.1,1,0.1,1.6,0.1,3.1V45.5z"/>
		<path class="st1" d="M287.5,45.2c1.2,0.5,2.6,0.7,3.9,0.7c2.1,0,4.9-1,4.9-4c0-4.6-6.9-4.3-6.9-6.9c0-1.8,1.2-2.3,3-2.3
			c1,0,2.2,0.2,3.1,0.7l0.2-1.5c-1.2-0.5-2.7-0.6-3.5-0.6c-2.3,0-4.6,1-4.6,3.8c0,4.1,6.7,3.5,6.7,6.9c0,1.6-1.5,2.5-3.1,2.5
			c-1.3,0-2.6-0.4-3.7-0.9L287.5,45.2z"/>
		<path class="st1" d="M299.5,45.5h1.7v-14h-1.7V45.5z M301.2,25.4h-1.7v2.3h1.7V25.4z"/>
		<path class="st1" d="M311.6,31.5h-3.2v-4l-1.7,0.6v3.4h-2.8V33h2.8v8.2c0,2.6,0.1,4.7,3.2,4.7c0.9,0,1.7-0.2,2.1-0.4l-0.1-1.4
			c-0.5,0.2-0.9,0.3-1.6,0.3c-1.4,0-1.9-1-1.9-2.3V33h3.2V31.5z"/>
	</g>
	<g>
		<path class="st1" d="M402.5,57.3h-15.4v28.9c0,7.6-2.4,19.6-13.5,19.6c-9.9,0-10-9.7-10-17V57.3h-15.4v37.3
			c0,13.3,6.1,23.2,20.1,23.2c8,0,14.7-3.7,19.4-9.4h0.2v8h14.6V57.3z"/>
		<g>
			<path class="st1" d="M466.6,57.2h-7.3v32.7c0,9.9-4.2,21.6-17.5,21.6c-10.1,0-14-7.2-14-18.3V57.2h-7.3V95
				c0,13,5.6,22.7,20.2,22.7c12.3,0,16.7-6.6,19.1-11.9h0.2v10.5h7.1c-0.5-4.8-0.5-9.4-0.5-13.9V57.2z"/>
		</g>
		<rect x="483.1" y="27.6" class="st1" width="7.2" height="88.8"/>
		<g>
			<path class="st1" d="M584.4,116.4V75.8c0-11.5-6.7-19.8-18.6-19.8c-9.2,0-16.2,5.6-18.8,12.5h-0.2C544.9,58.2,536.3,56,531.1,56
				c-12.6,0-16.1,7.4-18.4,11.5l-0.2-0.1v-9.9h-7.1c0.5,4.7,0.5,9.4,0.5,13.9v45.1h7.3V83.7c0-14.7,7.9-21.5,15.8-21.5
				c9.4,0,12.5,6.6,12.5,14.9v39.2h7.3V83.7c0-14.7,7.9-21.5,15.8-21.5c9.4,0,12.5,6.6,12.5,14.9v39.2H584.4z"/>
		</g>
	</g>
	<g>
		<path class="st1" d="M176.6,31.5h-1.7v7.8c0,2.3-1,5.1-4.2,5.1c-2.4,0-3.3-1.7-3.3-4.3v-8.5h-1.7v9c0,3.1,1.3,5.4,4.8,5.4
			c2.9,0,4-1.6,4.5-2.8h0.1v2.5h1.7c-0.1-1.1-0.1-2.2-0.1-3.3V31.5z"/>
		<rect x="181" y="24.9" class="st1" width="1.7" height="20.6"/>
		<path class="st1" d="M205.7,45.5v-9.7c0-2.7-1.6-4.7-4.4-4.7c-2.2,0-3.8,1.3-4.5,3h-0.1c-0.4-2.4-2.5-3-3.7-3
			c-3,0-3.8,1.8-4.4,2.7l-0.1,0v-2.4H187c0.1,1.1,0.1,2.2,0.1,3.3v10.7h1.7v-7.8c0-3.5,1.9-5.1,3.8-5.1c2.2,0,3,1.6,3,3.5v9.3h1.7
			v-7.8c0-3.5,1.9-5.1,3.8-5.1c2.2,0,3,1.6,3,3.5v9.3H205.7z"/>
		<path class="st1" d="M325,31.5h-1.8l-4,11.7h-0.1l0,0l-3.9-11.7h-1.9l5,14.2l-0.4,1.2c-0.5,1.8-1,3.1-2.5,3.1
			c-0.6,0-1-0.1-1.3-0.2l-0.2,1.5c0.6,0.1,1.2,0.2,1.9,0.2c2,0,2.9-1.9,3.6-3.9L325,31.5z"/>
	</g>
</g>
</svg>
