<?xml version="1.0" encoding="utf-8"?>
<!-- Generator: Adobe Illustrator 18.0.0, SVG Export Plug-In . SVG Version: 6.00 Build 0)  -->
<!DOCTYPE svg PUBLIC "-//W3C//DTD SVG 1.1//EN" "http://www.w3.org/Graphics/SVG/1.1/DTD/svg11.dtd">
<svg version="1.1" id="Layer_1" xmlns="http://www.w3.org/2000/svg" xmlns:xlink="http://www.w3.org/1999/xlink" x="0px" y="0px"
	 viewBox="0 0 32 32" enable-background="new 0 0 32 32" xml:space="preserve">
<g id="news">
	<path fill="#FFFFFF" d="M29,0H7C5.3,0,4,1.3,4,3v2H3C1.3,5,0,6.3,0,8v20c0,2.2,1.8,4,4,4h24c2.2,0,4-1.8,4-4V3C32,1.3,30.7,0,29,0z
		 M30,28c0,1.1-0.9,2-2,2H4c-1.1,0-2-0.9-2-2V8c0-0.6,0.4-1,1-1h1v20c0,0.6,0.4,1,1,1s1-0.4,1-1V3c0-0.6,0.4-1,1-1h22
		c0.6,0,1,0.4,1,1V28z"/>
	<path fill="#FFFFFF" d="M19.5,13h8c0.3,0,0.5-0.2,0.5-0.5S27.8,12,27.5,12h-8c-0.3,0-0.5,0.2-0.5,0.5S19.2,13,19.5,13z"/>
	<path fill="#FFFFFF" d="M19.5,10h8c0.3,0,0.5-0.2,0.5-0.5S27.8,9,27.5,9h-8C19.2,9,19,9.2,19,9.5S19.2,10,19.5,10z"/>
	<path fill="#FFFFFF" d="M19.5,7h8C27.8,7,28,6.8,28,6.5S27.8,6,27.5,6h-8C19.2,6,19,6.2,19,6.5S19.2,7,19.5,7z"/>
	<path fill="#FFFFFF" d="M16.5,27h-8C8.2,27,8,27.2,8,27.5C8,27.8,8.2,28,8.5,28h8c0.3,0,0.5-0.2,0.5-0.5C17,27.2,16.8,27,16.5,27z"
		/>
	<path fill="#FFFFFF" d="M16.5,24h-8C8.2,24,8,24.2,8,24.5C8,24.8,8.2,25,8.5,25h8c0.3,0,0.5-0.2,0.5-0.5C17,24.2,16.8,24,16.5,24z"
		/>
	<path fill="#FFFFFF" d="M16.5,21h-8C8.2,21,8,21.2,8,21.5C8,21.8,8.2,22,8.5,22h8c0.3,0,0.5-0.2,0.5-0.5C17,21.2,16.8,21,16.5,21z"
		/>
	<path fill="#FFFFFF" d="M27.5,27h-8c-0.3,0-0.5,0.2-0.5,0.5c0,0.3,0.2,0.5,0.5,0.5h8c0.3,0,0.5-0.2,0.5-0.5
		C28,27.2,27.8,27,27.5,27z"/>
	<path fill="#FFFFFF" d="M27.5,24h-8c-0.3,0-0.5,0.2-0.5,0.5c0,0.3,0.2,0.5,0.5,0.5h8c0.3,0,0.5-0.2,0.5-0.5
		C28,24.2,27.8,24,27.5,24z"/>
	<path fill="#FFFFFF" d="M27.5,21h-8c-0.3,0-0.5,0.2-0.5,0.5c0,0.3,0.2,0.5,0.5,0.5h8c0.3,0,0.5-0.2,0.5-0.5
		C28,21.2,27.8,21,27.5,21z"/>
	<path fill="#FFFFFF" d="M27.5,15h-19C8.2,15,8,15.2,8,15.5S8.2,16,8.5,16h19c0.3,0,0.5-0.2,0.5-0.5S27.8,15,27.5,15z"/>
	<path fill="#FFFFFF" d="M27.5,18h-19C8.2,18,8,18.2,8,18.5C8,18.8,8.2,19,8.5,19h19c0.3,0,0.5-0.2,0.5-0.5C28,18.2,27.8,18,27.5,18
		z"/>
	<path fill="#FFFFFF" d="M9,13h7c0.6,0,1-0.4,1-1V5c0-0.6-0.4-1-1-1H9C8.4,4,8,4.5,8,5v7C8,12.6,8.4,13,9,13z M10,6h5v5h-5V6z"/>
</g>
</svg>
